<REAPER_PROJECT 0.1 "6.15/x64" 1611672823
  RIPPLE 0
  GROUPOVERRIDE 0 0 0
  AUTOXFADE 1
  ENVATTACH 1
  POOLEDENVATTACH 0
  MIXERUIFLAGS 11 48
  PEAKGAIN 1
  FEEDBACK 0
  PANLAW 1
  PROJOFFS 0 0 0
  MAXPROJLEN 0 600
  GRID 3199 8 1 8 1 0 0 0
  TIMEMODE 1 5 -1 30 0 0 -1
  VIDEO_CONFIG 0 0 256
  PANMODE 3
  CURSOR 143.5
  ZOOM 25.47655226259524 1763 0
  VZOOMEX 6 0
  USE_REC_CFG 0
  RECMODE 1
  SMPTESYNC 0 30 100 40 1000 300 0 0 1 0 0
  LOOP 0
  LOOPGRAN 0 4
  RECORD_PATH "" ""
  <RECORD_CFG
  >
  <APPLYFX_CFG
  >
  RENDER_FILE ""
  RENDER_PATTERN ""
  RENDER_FMT 0 2 0
  RENDER_1X 0
  RENDER_RANGE 1 0 0 18 1000
  RENDER_RESAMPLE 3 0 1
  RENDER_ADDTOPROJ 0
  RENDER_STEMS 0
  RENDER_DITHER 0
  TIMELOCKMODE 1
  TEMPOENVLOCKMODE 1
  ITEMMIX 0
  DEFPITCHMODE 589824 0
  TAKELANE 1
  SAMPLERATE 44100 0 0
  <RENDER_CFG
  >
  LOCK 1
  <METRONOME 6 2
    VOL 0.25 0.125
    FREQ 800 1600 1
    BEATLEN 4
    SAMPLES "" ""
    PATTERN 2863311530 2863311529
  >
  GLOBAL_AUTO -1
  TEMPO 120 4 4
  PLAYRATE 1 0 0.25 4
  SELECTION 0 0
  SELECTION2 0 0
  MASTERAUTOMODE 0
  MASTERTRACKHEIGHT 0 0
  MASTERPEAKCOL 16576
  MASTERMUTESOLO 0
  MASTERTRACKVIEW 0 0.6667 0.5 0.5 -1 -1 -1 0 0 0 -1 -1 0
  MASTERHWOUT 0 0 1 0 0 0 0 -1
  MASTER_NCH 2 2
  MASTER_VOLUME 1 0 -1 -1 1
  MASTER_FX 1
  MASTER_SEL 0
  <MASTERPLAYSPEEDENV
    EGUID {6EDE0CBA-3130-4615-AB0C-A483F582B09B}
    ACT 0 -1
    VIS 0 1 1
    LANEHEIGHT 0 0
    ARM 0
    DEFSHAPE 0 -1 -1
  >
  <TEMPOENVEX
    EGUID {090042CE-8C1D-4FB5-A928-9D295168C57A}
    ACT 0 -1
    VIS 1 0 1
    LANEHEIGHT 0 0
    ARM 0
    DEFSHAPE 1 -1 -1
  >
  <PROJBAY
  >
  <TRACK {2FA688CB-ACA5-4D81-8F57-53883200C154}
    NAME "flury 1"
    PEAKCOL 16576
    BEAT -1
    AUTOMODE 0
    VOLPAN 1 0 -1 -1 1
    MUTESOLO 0 0 0
    IPHASE 0
    PLAYOFFS 0 1
    ISBUS 0 0
    BUSCOMP 0 0 0 0 0
    SHOWINMIX 1 0.6667 0.5 1 0.5 -1 -1 -1
    FREEMODE 0
    SEL 0
    REC 0 0 1 0 0 0 0
    VU 2
    TRACKHEIGHT 0 0 0 0 -1 0
    INQ 0 0 0 0.5 100 0 0 100
    NCHAN 2
    FX 1
    TRACKID {2FA688CB-ACA5-4D81-8F57-53883200C154}
    PERF 0
    MIDIOUT -1
    MAINSEND 1 0
    <ITEM
      POSITION 0
      SNAPOFFS 0
      LENGTH 32
      LOOP 1
      ALLTAKES 0
      FADEIN 1 0.01 0 1 0 0
      FADEOUT 1 0.01 0 1 0 0
      MUTE 0 0
      SEL 0
      IGUID {37E5180E-6F21-4925-ACF4-22B4401C1C7D}
      IID 1
      NAME "flury 1.mp3"
      VOLPAN 1 0 1 -1
      SOFFS 0
      PLAYRATE 1 1 0 -1 0 0.0025
      CHANMODE 0
      GUID {9C86AD52-FFC0-44CE-A4DE-8253D0F6A05D}
      <SOURCE MP3
        FILE "C:\Users\User\Desktop\flurry\flury 1.mp3" 1
      >
    >
    <ITEM
      POSITION 48
      SNAPOFFS 0
      LENGTH 32
      LOOP 1
      ALLTAKES 0
      FADEIN 1 0.01 0 1 0 0
      FADEOUT 1 0.01 0 1 0 0
      MUTE 0 0
      SEL 0
      IGUID {CECDC0B5-C9E3-41B6-ABA8-81BBE32F4AA2}
      IID 1
      NAME "flury 1.mp3"
      VOLPAN 1 0 1 -1
      SOFFS 0
      PLAYRATE 1 1 0 -1 0 0.0025
      CHANMODE 0
      GUID {B261C8F2-38DE-4DAF-9897-7B2E94756305}
      <SOURCE MP3
        FILE "C:\Users\User\Desktop\flurry\flury 1.mp3" 1
      >
    >
    <ITEM
      POSITION 96
      SNAPOFFS 0
      LENGTH 32
      LOOP 1
      ALLTAKES 0
      FADEIN 1 0.01 0 1 0 0
      FADEOUT 1 0.01 0 1 0 0
      MUTE 0 0
      SEL 0
      IGUID {82BA47A7-22A9-4223-8713-BAA1CCB6D7E5}
      IID 1
      NAME "flury 1.mp3"
      VOLPAN 1 0 1 -1
      SOFFS 0
      PLAYRATE 1 1 0 -1 0 0.0025
      CHANMODE 0
      GUID {1A775BC6-2C02-45BA-87B6-D1D15DFBDCD9}
      <SOURCE MP3
        FILE "C:\Users\User\Desktop\flurry\flury 1.mp3" 1
      >
    >
    <ITEM
      POSITION 128
      SNAPOFFS 0
      LENGTH 16
      LOOP 1
      ALLTAKES 0
      FADEIN 1 0.01 0 1 0 0
      FADEOUT 1 0.01 0 1 0 0
      MUTE 0 0
      SEL 0
      IGUID {0495AB1C-3632-4C6E-B170-7C63EF5AB6DE}
      IID 1
      NAME "flury 1.mp3"
      VOLPAN 1 0 1 -1
      SOFFS 0
      PLAYRATE 1 1 0 -1 0 0.0025
      CHANMODE 0
      GUID {28A82A2C-F415-4901-94E4-F46818615FFD}
      <SOURCE MP3
        FILE "C:\Users\User\Desktop\flurry\flury 1.mp3" 1
      >
    >
  >
  <TRACK {50FF76A3-D641-4A76-9E4D-43695C7F5577}
    NAME cocktail-shaker-arabian-120
    PEAKCOL 16576
    BEAT -1
    AUTOMODE 0
    VOLPAN 0.07067705116086 0 -1 -1 1
    MUTESOLO 0 0 0
    IPHASE 0
    PLAYOFFS 0 1
    ISBUS 0 0
    BUSCOMP 0 0 0 0 0
    SHOWINMIX 1 0.6667 0.5 1 0.5 -1 -1 -1
    FREEMODE 0
    SEL 0
    REC 0 0 1 0 0 0 0
    VU 2
    TRACKHEIGHT 0 0 0 0 -1 0
    INQ 0 0 0 0.5 100 0 0 100
    NCHAN 2
    FX 1
    TRACKID {50FF76A3-D641-4A76-9E4D-43695C7F5577}
    PERF 0
    MIDIOUT -1
    MAINSEND 1 0
    <ITEM
      POSITION 0
      SNAPOFFS 0
      LENGTH 12
      LOOP 1
      ALLTAKES 0
      FADEIN 1 0.01 0 1 0 0
      FADEOUT 1 0.01 0 1 0 0
      MUTE 0 0
      BEAT 1
      SEL 0
      IGUID {4BD76CA0-01DF-4251-99D2-96651D1B0514}
      IID 2
      NAME cocktail-shaker-arabian-120.wav
      VOLPAN 1 0 1 -1
      SOFFS 0
      PLAYRATE 1 1 0 -1 0 0.0025
      CHANMODE 0
      GUID {718ED786-BD3D-4B27-95B3-66C87C13CF13}
      <SOURCE WAVE
        FILE "C:\Users\User\Desktop\samples & loops\cocktail-shaker-arabian-120.wav"
      >
    >
    <ITEM
      POSITION 48
      SNAPOFFS 0
      LENGTH 32
      LOOP 1
      ALLTAKES 0
      FADEIN 1 0.01 0 1 0 0
      FADEOUT 1 0.01 0 1 0 0
      MUTE 0 0
      BEAT 1
      SEL 0
      IGUID {E74EEF1A-EE40-4BAB-869E-F88FF14D3B66}
      IID 2
      NAME cocktail-shaker-arabian-120.wav
      VOLPAN 1 0 1 -1
      SOFFS 0
      PLAYRATE 1 1 0 -1 0 0.0025
      CHANMODE 0
      GUID {E793D8A5-F491-46D5-9D6E-9A25191AE155}
      <SOURCE WAVE
        FILE "C:\Users\User\Desktop\samples & loops\cocktail-shaker-arabian-120.wav"
      >
    >
    <ITEM
      POSITION 96
      SNAPOFFS 0
      LENGTH 12
      LOOP 1
      ALLTAKES 0
      FADEIN 1 0.01 0 1 0 0
      FADEOUT 1 0.01 0 1 0 0
      MUTE 0 0
      BEAT 1
      SEL 0
      IGUID {2C4EC0F8-C876-41CD-9908-9B7CD170D637}
      IID 2
      NAME cocktail-shaker-arabian-120.wav
      VOLPAN 1 0 1 -1
      SOFFS 0
      PLAYRATE 1 1 0 -1 0 0.0025
      CHANMODE 0
      GUID {030C569F-0D4E-417C-80C3-BC55414C5F83}
      <SOURCE WAVE
        FILE "C:\Users\User\Desktop\samples & loops\cocktail-shaker-arabian-120.wav"
      >
    >
    <ITEM
      POSITION 112
      SNAPOFFS 0
      LENGTH 32
      LOOP 1
      ALLTAKES 0
      FADEIN 1 0.01 0 1 0 0
      FADEOUT 1 0.01 0 1 0 0
      MUTE 0 0
      BEAT 1
      SEL 0
      IGUID {F7432EC0-D5A8-4657-82DE-7772D91195C6}
      IID 61
      NAME cocktail-shaker-arabian-120.wav
      VOLPAN 1 0 1 -1
      SOFFS 16
      PLAYRATE 1 1 0 -1 0 0.0025
      CHANMODE 0
      GUID {DE1219C9-9515-4736-8BF1-A8188C5D606A}
      <SOURCE WAVE
        FILE "C:\Users\User\Desktop\samples & loops\cocktail-shaker-arabian-120.wav"
      >
    >
    <ITEM
      POSITION 148
      SNAPOFFS 0
      LENGTH 28
      LOOP 1
      ALLTAKES 0
      FADEIN 1 0.01 0 1 0 0
      FADEOUT 1 0.01 0 1 0 0
      MUTE 0 0
      BEAT 1
      SEL 0
      IGUID {C4F9EE77-AA20-4D79-92E0-94B74F00A52E}
      IID 61
      NAME cocktail-shaker-arabian-120.wav
      VOLPAN 1 0 1 -1
      SOFFS 12
      PLAYRATE 1 1 0 -1 0 0.0025
      CHANMODE 0
      GUID {E4272535-A8A9-425B-87FF-BA2B632CA4F4}
      <SOURCE WAVE
        FILE "C:\Users\User\Desktop\samples & loops\cocktail-shaker-arabian-120.wav"
      >
    >
  >
  <TRACK {DEC73A35-8FC7-4816-83E7-61365A86BA5D}
    NAME weird-drum-pattern
    PEAKCOL 16576
    BEAT -1
    AUTOMODE 0
    VOLPAN 1 0 -1 -1 1
    MUTESOLO 0 0 0
    IPHASE 0
    PLAYOFFS 0 1
    ISBUS 0 0
    BUSCOMP 0 0 0 0 0
    SHOWINMIX 1 0.6667 0.5 1 0.5 -1 -1 -1
    FREEMODE 0
    SEL 0
    REC 0 0 1 0 0 0 0
    VU 2
    TRACKHEIGHT 0 0 0 0 -1 0
    INQ 0 0 0 0.5 100 0 0 100
    NCHAN 2
    FX 1
    TRACKID {DEC73A35-8FC7-4816-83E7-61365A86BA5D}
    PERF 0
    MIDIOUT -1
    MAINSEND 1 0
    <ITEM
      POSITION 16
      SNAPOFFS 0
      LENGTH 64
      LOOP 1
      ALLTAKES 0
      FADEIN 1 0.01 0 1 0 0
      FADEOUT 1 0.01 0 1 0 0
      MUTE 0 0
      SEL 0
      IGUID {062DAB0E-151E-48BE-B3EA-7AE7415DB822}
      IID 3
      NAME weird-drum-pattern.mp3
      VOLPAN 1 0 1 -1
      SOFFS 0
      PLAYRATE 1 1 0 -1 0 0.0025
      CHANMODE 0
      GUID {1ABE2770-A6C7-4AE7-B2BC-6F20118C5E00}
      <SOURCE MP3
        FILE "C:\Users\User\Desktop\flurry\weird-drum-pattern.mp3" 1
      >
    >
    <ITEM
      POSITION 88
      SNAPOFFS 0
      LENGTH 8.00000999995973
      LOOP 1
      ALLTAKES 0
      FADEIN 1 0.01 0 1 0 0
      FADEOUT 1 0.01 0 1 0 0
      MUTE 0 0
      SEL 0
      IGUID {C8508098-B370-46D3-B4EF-5551F1ABC65F}
      IID 29
      NAME weird-drum-pattern.mp3
      VOLPAN 1 0 1 -1
      SOFFS 2
      PLAYRATE 1 1 0 -1 0 0.0025
      CHANMODE 0
      GUID {693045A8-DA22-4C5B-8226-CD221165E953}
      <SOURCE MP3
        FILE "C:\Users\User\Desktop\flurry\weird-drum-pattern.mp3" 1
      >
    >
    <ITEM
      POSITION 112
      SNAPOFFS 0
      LENGTH 32
      LOOP 1
      ALLTAKES 0
      FADEIN 1 0.01 0 1 0 0
      FADEOUT 1 0.01 0 1 0 0
      MUTE 0 0
      SEL 0
      IGUID {8EA1B201-6E54-4292-B7C3-21B08ACAB70F}
      IID 3
      NAME weird-drum-pattern.mp3
      VOLPAN 1 0 1 -1
      SOFFS 0
      PLAYRATE 1 1 0 -1 0 0.0025
      CHANMODE 0
      GUID {3455290B-AD40-4158-939D-C423A70F85D9}
      <SOURCE MP3
        FILE "C:\Users\User\Desktop\flurry\weird-drum-pattern.mp3" 1
      >
    >
    <ITEM
      POSITION 148
      SNAPOFFS 0
      LENGTH 28
      LOOP 1
      ALLTAKES 0
      FADEIN 1 0.01 0 1 0 0
      FADEOUT 1 0.01 0 1 0 0
      MUTE 0 0
      SEL 0
      IGUID {3FC02DAF-8D9F-44B6-A4AD-3B7BB4ABEDA5}
      IID 3
      NAME weird-drum-pattern.mp3
      VOLPAN 1 0 1 -1
      SOFFS 0
      PLAYRATE 1 1 0 -1 0 0.0025
      CHANMODE 0
      GUID {13DAAFD2-8517-419F-B465-710634AF14CA}
      <SOURCE MP3
        FILE "C:\Users\User\Desktop\flurry\weird-drum-pattern.mp3" 1
      >
    >
  >
  <TRACK {5C42FD8B-531D-4859-A470-257E9F8F2BB0}
    NAME "flury 2"
    PEAKCOL 16576
    BEAT -1
    AUTOMODE 0
    VOLPAN 1 0 -1 -1 1
    MUTESOLO 0 0 0
    IPHASE 0
    PLAYOFFS 0 1
    ISBUS 0 0
    BUSCOMP 0 0 0 0 0
    SHOWINMIX 1 0.6667 0.5 1 0.5 -1 -1 -1
    FREEMODE 0
    SEL 0
    REC 0 0 1 0 0 0 0
    VU 2
    TRACKHEIGHT 0 0 0 0 -1 0
    INQ 0 0 0 0.5 100 0 0 100
    NCHAN 2
    FX 1
    TRACKID {5C42FD8B-531D-4859-A470-257E9F8F2BB0}
    PERF 0
    MIDIOUT -1
    MAINSEND 1 0
    <ITEM
      POSITION 32
      SNAPOFFS 0
      LENGTH 16
      LOOP 1
      ALLTAKES 0
      FADEIN 1 0.01 0 1 0 0
      FADEOUT 1 0.01 0 1 0 0
      MUTE 0 0
      SEL 0
      IGUID {1294FD8C-C0C7-40FE-A899-281E8A38AF48}
      IID 4
      NAME "flury 2.mp3"
      VOLPAN 1 0 1 -1
      SOFFS 0
      PLAYRATE 1 1 0 -1 0 0.0025
      CHANMODE 0
      GUID {8A823810-DC64-4F22-8787-B798F968D6C1}
      <SOURCE MP3
        FILE "C:\Users\User\Desktop\flurry\flury 2.mp3" 1
      >
    >
    <ITEM
      POSITION 80
      SNAPOFFS 0
      LENGTH 0.00001
      LOOP 1
      ALLTAKES 0
      FADEIN 1 0 0 1 0 0
      FADEOUT 1 0 0 1 0 0
      MUTE 0 0
      SEL 0
      IGUID {EB21206D-914E-4823-8465-020357B3BDBD}
      IID 30
      NAME "flury 2.mp3"
      VOLPAN 1 0 1 -1
      SOFFS 14
      PLAYRATE 1 1 0 -1 0 0.0025
      CHANMODE 0
      GUID {A49922DA-275C-442F-82CA-021B23173F5D}
      <SOURCE MP3
        FILE "C:\Users\User\Desktop\flurry\flury 2.mp3" 1
      >
    >
    <ITEM
      POSITION 80.00000999995973
      SNAPOFFS 0
      LENGTH 16
      LOOP 1
      ALLTAKES 0
      FADEIN 1 0.01 0 1 0 0
      FADEOUT 1 0.01 0 1 0 0
      MUTE 0 0
      SEL 0
      IGUID {F22193BE-F48D-4EE8-9606-D8536C554590}
      IID 4
      NAME "flury 2.mp3"
      VOLPAN 1 0 1 -1
      SOFFS 0
      PLAYRATE 1 1 0 -1 0 0.0025
      CHANMODE 0
      GUID {5476174E-09E1-46BB-9CEE-0207FBD6F384}
      <SOURCE MP3
        FILE "C:\Users\User\Desktop\flurry\flury 2.mp3" 1
      >
    >
    <ITEM
      POSITION 144
      SNAPOFFS 0
      LENGTH 16
      LOOP 1
      ALLTAKES 0
      FADEIN 1 0.01 0 1 0 0
      FADEOUT 1 0.01 0 1 0 0
      MUTE 0 0
      SEL 0
      IGUID {D575F69F-DFBE-4D15-B808-3EB59AE64131}
      IID 4
      NAME "flury 2.mp3"
      VOLPAN 1 0 1 -1
      SOFFS 0
      PLAYRATE 1 1 0 -1 0 0.0025
      CHANMODE 0
      GUID {A35AD32E-694A-4247-9F2F-7167704DC02B}
      <SOURCE MP3
        FILE "C:\Users\User\Desktop\flurry\flury 2.mp3" 1
      >
    >
    <ITEM
      POSITION 160
      SNAPOFFS 0
      LENGTH 16
      LOOP 1
      ALLTAKES 0
      FADEIN 1 0.01 0 1 0 0
      FADEOUT 1 0.01 0 1 0 0
      MUTE 0 0
      SEL 0
      IGUID {A009CEBB-FFBF-4FAB-ABAC-9895DC33660D}
      IID 4
      NAME "flury 2.mp3"
      VOLPAN 1 0 1 -1
      SOFFS 0
      PLAYRATE 1 1 0 -1 0 0.0025
      CHANMODE 0
      GUID {F7924A5F-92BA-437C-85B6-B91A61FFA80E}
      <SOURCE MP3
        FILE "C:\Users\User\Desktop\flurry\flury 2.mp3" 1
      >
    >
  >
  <TRACK {6A45C643-1463-4595-B5FB-91459D021319}
    NAME "mocha-jones-x-the-weeknd C"
    PEAKCOL 16576
    BEAT -1
    AUTOMODE 0
    VOLPAN 0.73679674640694 0 -1 -1 1
    MUTESOLO 0 0 0
    IPHASE 0
    PLAYOFFS 0 1
    ISBUS 0 0
    BUSCOMP 0 0 0 0 0
    SHOWINMIX 1 0.6667 0.5 1 0.5 -1 -1 -1
    FREEMODE 0
    SEL 0
    REC 0 0 1 0 0 0 0
    VU 2
    TRACKHEIGHT 0 0 0 0 -1 0
    INQ 0 0 0 0.5 100 0 0 100
    NCHAN 2
    FX 1
    TRACKID {6A45C643-1463-4595-B5FB-91459D021319}
    PERF 0
    MIDIOUT -1
    MAINSEND 1 0
    <ITEM
      POSITION 48
      SNAPOFFS 0
      LENGTH 32
      LOOP 1
      ALLTAKES 0
      FADEIN 1 0.01 0 1 0 0
      FADEOUT 1 0.01 0 1 0 0
      MUTE 0 0
      SEL 0
      IGUID {BAFBC603-E766-4AEB-84FA-230A5E1526D7}
      IID 5
      NAME "mocha-jones-x-the-weeknd C.mp3"
      VOLPAN 1 0 1 -1
      SOFFS 0
      PLAYRATE 1 1 0 -1 0 0.0025
      CHANMODE 0
      GUID {DB062704-6696-4E30-8D85-2DF51AAB2405}
      <SOURCE MP3
        FILE "C:\Users\User\Desktop\samples & loops\mocha-jones-x-the-weeknd C.mp3" 1
      >
    >
    <ITEM
      POSITION 96
      SNAPOFFS 0
      LENGTH 12
      LOOP 1
      ALLTAKES 0
      FADEIN 1 0.01 0 1 0 0
      FADEOUT 1 0.01 0 1 0 0
      MUTE 0 0
      SEL 0
      IGUID {9956FE14-7AEF-40E7-A86E-B81E16386D7C}
      IID 5
      NAME "mocha-jones-x-the-weeknd C.mp3"
      VOLPAN 1 0 1 -1
      SOFFS 0
      PLAYRATE 1 1 0 -1 0 0.0025
      CHANMODE 0
      GUID {0CF1A9B4-FA41-4282-A276-6E3158860483}
      <SOURCE MP3
        FILE "C:\Users\User\Desktop\samples & loops\mocha-jones-x-the-weeknd C.mp3" 1
      >
    >
    <ITEM
      POSITION 112
      SNAPOFFS 0
      LENGTH 16
      LOOP 1
      ALLTAKES 0
      FADEIN 1 0.01 0 1 0 0
      FADEOUT 1 0.01 0 1 0 0
      MUTE 0 0
      SEL 0
      IGUID {28E5A01E-4484-49CE-B3F8-C59E4B8E2954}
      IID 63
      NAME "mocha-jones-x-the-weeknd C.mp3"
      VOLPAN 1 0 1 -1
      SOFFS 0
      PLAYRATE 1 1 0 -1 0 0.0025
      CHANMODE 0
      GUID {CB82443F-F4C8-4587-A1D9-4E1190412320}
      <SOURCE MP3
        FILE "C:\Users\User\Desktop\samples & loops\mocha-jones-x-the-weeknd C.mp3" 1
      >
    >
    <ITEM
      POSITION 128
      SNAPOFFS 0
      LENGTH 16
      LOOP 1
      ALLTAKES 0
      FADEIN 1 0.01 0 1 0 0
      FADEOUT 1 0.01 0 1 0 0
      MUTE 0 0
      SEL 0
      IGUID {C8C7D193-4DF3-4034-A242-3FC86C9929EA}
      IID 5
      NAME "mocha-jones-x-the-weeknd C.mp3"
      VOLPAN 1 0 1 -1
      SOFFS 0
      PLAYRATE 1 1 0 -1 0 0.0025
      CHANMODE 0
      GUID {FAB862A6-0EFB-45C4-88C1-108EFF7935CB}
      <SOURCE MP3
        FILE "C:\Users\User\Desktop\samples & loops\mocha-jones-x-the-weeknd C.mp3" 1
      >
    >
  >
  <TRACK {3DEE4E37-FBFE-446D-A123-04BA31AD88A2}
    NAME "weird drum short"
    PEAKCOL 16576
    BEAT -1
    AUTOMODE 0
    VOLPAN 1 0 -1 -1 1
    MUTESOLO 0 0 0
    IPHASE 0
    PLAYOFFS 0 1
    ISBUS 0 0
    BUSCOMP 0 0 0 0 0
    SHOWINMIX 1 0.6667 0.5 1 0.5 -1 -1 -1
    FREEMODE 0
    SEL 0
    REC 0 0 1 0 0 0 0
    VU 2
    TRACKHEIGHT 0 0 0 0 -1 0
    INQ 0 0 0 0.5 100 0 0 100
    NCHAN 2
    FX 1
    TRACKID {3DEE4E37-FBFE-446D-A123-04BA31AD88A2}
    PERF 0
    MIDIOUT -1
    MAINSEND 1 0
    <ITEM
      POSITION 84
      SNAPOFFS 0
      LENGTH 4
      LOOP 1
      ALLTAKES 0
      FADEIN 1 0.01 0 1 0 0
      FADEOUT 1 0.01 0 1 0 0
      MUTE 0 0
      SEL 0
      IGUID {B70E5A0A-D199-41D2-8185-056905EFAD89}
      IID 35
      NAME "weird drum short.mp3"
      VOLPAN 1 0 1 -1
      SOFFS 0
      PLAYRATE 1 1 0 -1 0 0.0025
      CHANMODE 0
      GUID {11D4A8EE-EEFB-41F8-BF74-6D37578477C1}
      <SOURCE MP3
        FILE "C:\Users\User\Desktop\flurry\weird drum short.mp3" 1
      >
    >
  >
  <TRACK {EA6EE0BD-0F1B-4C8E-8705-BB0D341C20E7}
    NAME "midi 1"
    PEAKCOL 16576
    BEAT -1
    AUTOMODE 0
    VOLPAN 0.66986052015679 0 -1 -1 1
    MUTESOLO 0 0 0
    IPHASE 0
    PLAYOFFS 0 1
    ISBUS 0 0
    BUSCOMP 0 0 0 0 0
    SHOWINMIX 1 0.6667 0.5 1 0.5 -1 -1 -1
    FREEMODE 0
    SEL 0
    REC 1 4096 1 0 0 0 0
    VU 2
    TRACKHEIGHT 0 0 0 0 -1 0
    INQ 0 0 0 0.5 100 0 0 100
    NCHAN 2
    FX 1
    TRACKID {EA6EE0BD-0F1B-4C8E-8705-BB0D341C20E7}
    PERF 0
    MIDIOUT -1
    MAINSEND 1 0
    <FXCHAIN
      WNDRECT 807 161 1139 567
      SHOW 0
      LASTSEL 0
      DOCKED 0
      BYPASS 0 0 0
      <VST "VSTi: Sketch Organ (bigcat) (32 out)" "Sketch Organ.dll" 0 "" 1364086630<565354514E4F66736B65746368206F72> ""
        Zk9OUe5e7f4AAAAAIAAAAAEAAAAAAAAAAgAAAAAAAAAEAAAAAAAAAAgAAAAAAAAAEAAAAAAAAAAgAAAAAAAAAEAAAAAAAAAAgAAAAAAAAAAAAQAAAAAAAAACAAAAAAAA
        AAQAAAAAAAAACAAAAAAAAAAQAAAAAAAAACAAAAAAAAAAQAAAAAAAAACAAAAAAAAAAAABAAAAAAAAAAIAAAAAAAAABAAAAAAAAAAIAAAAAAAAABAAAAAAAAAAIAAAAAAA
        AABAAAAAAAAAAIAAAAAAAAAAAAEAAAAAAAAAAgAAAAAAAAAEAAAAAAAAAAgAAAAAAAAAEAAAAAAAAAAgAAAAAAAAAEAAAAAAAAAAgAAAAACtBAAAAQAAAAAAEAA=
        U2tldGNoIE9yZ2FuLm1zZQBErAAARKwAAAEAAAABAAAAAAAAAAAAAABAAAAAQAAAAAIAAAAAAAAAAAAAAAAAAAAAABA2AAAAAAAAAAABAAAAAQAAAAAAQEAAAAAAAAAA
        AND///8AAAAAAAAAAAAAAAAAAAAAAAAAAAAAAAAAAAAAAAAAAAAAAAAAAAAAAAAAAAAAAAAAAAAAAAAAAAAAAAAAAAAAAAAAAAAAAAAAAAAAAAAAAAAAAAAAAAAAAAAA
        AAAAAAAAAAAAAAAAAAAAAAAAAAAAAAAAAAAAAAAAAAAAAAAAAAAAAAAAAAAAAAAAAAAAAAAAAAAAAAAAAAAAAAAAAAAAAAAAAAAAAAAAAAAAAAAAAAAAAAAAAAAAAAAA
        AAAAAAAAAAAAAAAAAAAAAAAAAAAAAAAAAAAAAAAAAAAAAAAAAAAAAAAAAAAAAAAAAAAAAAAAAAAAAAAAAAAAAAAAAAAAAAAAAAAAAAAAAAAAAAAAAAAAAAAAAAAAAAAA
        AAAAAAAAAAAAAAAAAAAAAAAAAAAAAAAAAAAAAAAAAAAAAAAAAAAAAAAAAAAAAAAAAAAAAAAAAAAAAAAAAAAAAAAAAAAAAAAAAAAAAAAAAAAAAAAAAAAAAAAAAAAAAAAA
        AAAAAAAAAAAAAAAAAAAAAAAAAAAAAAAAAAAAAAAAAAAAAAAAAAAAAAAAAAAAAAAAAAAAAAAAAAAAAAAAAAAAAAAAAAAAAAAAAAAAAAAAAAAAAAAAAAAAAAAAAAAAAAAA
        AAAAAAAAAAAAAAAAAAAAAAAAAAAAAAAAAAAAAAAAAAAAAQAAAAAAAAAAAAAAAAAAAAAAAAABAAAAAAAAAAAAAAAAAAAAAAAAAAAAgD8AAIA/AACAPwrXgz8AAAAAfwAA
        AH8AAAAAAAAAAAAAAAAAAAAAAMDAAAAAAAAAAAAAAAAAAQAAAAAAAAAAAAAAAAAAAAAAAAAAAAAAAAAAAAAAAAAAAAAAAAAAAAAAAAAAAAAAAAAAAAAAAAAAAAAAAAAA
        AAAAAAAAAAAAAAAAAAAAAAAAAAAAAAAAAAAAAAAAAAAAAAAAAAAAAAAAAAAAAAAAAAAAAAAAAAAAAAAAAAAAAAAAAAAAAAAAAAAAAAAAAAAAAAAAAAAAAAAAAAAAAAAA
        AAAAAAAAAAAAAAAAAAAAAAAAAAAAAAAAAAAAAAAAAAAAAAAAAAAAAAAAAAAAAAAAAAAAAAAAAAAAAAAAAAAAAAAAAAAAAAAAAAAAAAAAAAAAAAAAAAAAAAAAAAAAAAAA
        AAAAAAAAAAAAAAAAAAAAAAAAAAAAAAAAAAAAAAAAAAAAAAAAAAAAAAAAAAAAAAAAAAAAAAAAAAAAAAAAAAAAAAAAAAAAAAAAAAAAAAAAAAAAAAAAAAAAAAAAAAAAAAAA
        AAAAAAAAAAAAAAAAAAAAAAAAAAAAAAAAAAAAAAAAAAAAAAAAAAAAAAAAAAAAAAAAAAAAAAAAAAAAAAAAAAAAAAAAAAAAAAAAAAAAAAAAAAAAAAAAAAAAAAAAAAAAAAAA
        AAAAAAAAAAAAAAAAAAAAAAAAAAAAAAAAAAAAAAAAAAAAAAAAAAAAAAAAAAAA
        AFNrZXRjaCBPcmdhbgAQAAAA
      >
      PRESETNAME "Sketch Organ"
      FLOATPOS 0 0 0 0
      FXID {8B91B229-9C97-4342-B9AC-954C9E1BE8D5}
      WAK 0 0
    >
    <ITEM
      POSITION 80.00001
      SNAPOFFS 0
      LENGTH 15.67244613835406
      LOOP 1
      ALLTAKES 0
      FADEIN 1 0.01 0 1 0 0
      FADEOUT 1 0.01 0 1 0 0
      MUTE 0 0
      SEL 0
      IGUID {2DF20712-D566-4215-9A41-08E08BB18B49}
      IID 70
      VOLPAN 1
      TAKE SEL
      NAME "07-midi 1-Recorded MIDI"
      TAKEVOLPAN 0 1 -1
      SOFFS 4.5 9
      PLAYRATE 1 1 0 -1 0 0.0025
      CHANMODE 0
      TAKECOLOR 17333685 R
      GUID {5E4018AB-E99A-4A50-9555-9F2DF43EA80E}
      RECPASS 4
      <SOURCE MIDI
        HASDATA 1 960 QN
        CCINTERP 32
        POOLEDEVTS {718FD946-A3BB-4715-9594-AF6B0FA1C84D}
        E 8316 90 33 4a
        E 15 90 37 5a
        E 3739 90 3c 4a
        E 8 90 3e 72
        E 3389 90 3e 00
        E 761 90 3f 7f
        E 3162 90 3c 00
        E 331 90 3f 00
        E 131 90 3f 52
        E 13 90 41 41
        E 6 90 3a 56
        E 351 90 41 00
        E 3057 90 37 00
        E 17 90 33 00
        E 435 90 33 52
        E 10 90 37 64
        E 366 90 3f 00
        E 69 90 3a 00
        E 3338 90 3c 45
        E 20 90 3e 6c
        E 3562 90 3e 00
        E 274 90 3f 46
        E 7426 90 3f 00
        E 39 90 3c 00
        E 17 90 37 00
        E 49 90 33 00
        E 4545 b0 47 3b
        E 2470 b0 7b 00
        CCINTERP 32
        CHASE_CC_TAKEOFFS 1
        GUID {C2AD1450-BD2A-43C6-921D-E30CFB1B90FF}
        IGNTEMPO 0 120 4 4
        SRCCOLOR 21
      >
    >
    <ITEM
      POSITION 96.00000999995973
      SNAPOFFS 0
      LENGTH 47.99999000004027
      LOOP 1
      ALLTAKES 0
      FADEIN 1 0 0 1 0 0
      FADEOUT 1 0 0 1 0 0
      MUTE 0 0
      SEL 0
      IGUID {EBFBBBAA-D2BD-463B-8870-78A97364BE71}
      IID 69
      NAME "07-Recorded MIDI"
      VOLPAN 1 0 1 -1
      SOFFS 5.32756386160568 10.65512772321136
      PLAYRATE 1 1 0 -1 0 0.0025
      CHANMODE 0
      GUID {EBEDBE49-C4F2-45C0-83B2-9CCE1C8DCBCB}
      RECPASS 3
      <SOURCE MIDI
        HASDATA 1 960 QN
        CCINTERP 32
        POOLEDEVTS {A5DF7350-8FCE-4B15-828A-4FA023ADA891}
        E 10278 90 54 3b
        E 82 e0 00 42
        E 7 e0 00 44
        E 7 e0 00 46
        E 16 e0 00 48
        E 7 e0 00 4a
        E 9 e0 00 4c
        E 7 e0 00 4e
        E 9 e0 00 50
        E 7 e0 00 52
        E 3 e0 00 54
        E 9 e0 00 56
        E 7 e0 00 58
        E 9 e0 00 5a
        E 7 e0 00 5c
        E 8 e0 00 5e
        E 7 e0 00 60
        E 7 e0 00 62
        E 8 e0 00 64
        E 8 e0 00 66
        E 8 e0 00 68
        E 15 e0 00 6a
        E 7 e0 00 6c
        E 9 e0 00 6e
        E 8 e0 00 70
        E 7 e0 00 72
        E 7 e0 00 74
        E 4 e0 00 76
        E 9 e0 00 78
        E 8 e0 00 7a
        E 7 e0 00 7c
        E 9 e0 00 7e
        E 7 e0 7f 7f
        E 1703 e0 00 7d
        E 9 e0 00 7b
        E 7 e0 00 79
        E 8 e0 00 77
        E 8 e0 00 75
        E 4 e0 00 73
        E 0 e0 00 71
        E 7 e0 00 6f
        E 8 e0 00 6d
        E 8 e0 00 6b
        E 8 e0 00 69
        E 7 e0 00 67
        E 15 e0 00 65
        E 8 e0 00 63
        E 7 e0 00 61
        E 9 e0 00 5f
        E 13 e0 00 5d
        E 9 e0 00 5b
        E 8 e0 00 59
        E 7 e0 00 57
        E 9 e0 00 55
        E 14 e0 00 53
        E 7 e0 00 51
        E 9 e0 00 4f
        E 7 e0 00 4d
        E 9 e0 00 4b
        E 8 e0 00 49
        E 1 e0 00 47
        E 2 e0 00 45
        E 8 e0 00 43
        E 8 e0 00 41
        E 8 e0 00 40
        E 1599 e0 00 42
        E 8 e0 00 44
        E 8 e0 00 46
        E 8 e0 00 48
        E 1 e0 00 4a
        E 2 e0 00 4c
        E 8 e0 00 4e
        E 9 e0 00 50
        E 7 e0 00 52
        E 9 e0 00 54
        E 7 e0 00 56
        E 2 e0 00 58
        E 1 e0 00 5a
        E 9 e0 00 5c
        E 8 e0 00 5e
        E 33 e0 00 60
        E 8 e0 00 62
        E 8 e0 00 64
        E 7 e0 00 66
        E 9 e0 00 68
        E 6 e0 00 6a
        E 4 e0 00 6c
        E 8 e0 00 6e
        E 7 e0 00 70
        E 9 e0 00 72
        E 7 e0 00 74
        E 8 e0 00 76
        E 2 e0 00 78
        E 0 e0 00 7a
        E 0 e0 00 7c
        E 8 e0 00 7e
        E 8 e0 7f 7f
        E 1731 e0 00 7d
        E 9 e0 00 7b
        E 7 e0 00 79
        E 8 e0 00 77
        E 9 e0 00 75
        E 3 e0 00 73
        E 0 e0 00 71
        E 0 e0 00 6f
        E 0 e0 00 6d
        E 4 e0 00 6b
        E 8 e0 00 69
        E 7 e0 00 67
        E 9 e0 00 65
        E 7 e0 00 63
        E 16 e0 00 61
        E 7 e0 00 5f
        E 9 e0 00 5d
        E 7 e0 00 5b
        E 8 e0 00 59
        E 15 e0 00 57
        E 7 e0 00 55
        E 8 e0 00 53
        E 22 e0 00 51
        E 8 e0 00 4f
        E 9 e0 00 4d
        E 7 e0 00 4b
        E 9 e0 00 49
        E 7 e0 00 47
        E 6 e0 00 45
        E 9 e0 00 43
        E 7 e0 00 41
        E 8 e0 00 40
        E 1686 e0 00 3e
        E 9 e0 00 3c
        E 20 e0 00 3a
        E 9 e0 00 38
        E 8 e0 00 36
        E 7 e0 00 34
        E 9 e0 00 32
        E 7 e0 00 30
        E 6 e0 00 2e
        E 8 e0 00 2c
        E 7 e0 00 2a
        E 9 e0 00 28
        E 8 e0 00 26
        E 13 e0 00 24
        E 9 e0 00 22
        E 8 e0 00 20
        E 8 e0 00 1e
        E 8 e0 00 1c
        E 7 e0 00 1a
        E 4 e0 00 18
        E 8 e0 00 16
        E 8 e0 00 14
        E 8 e0 00 12
        E 7 e0 00 10
        E 9 e0 00 0e
        E 6 e0 00 0c
        E 9 e0 00 0a
        E 7 e0 00 08
        E 8 e0 00 06
        E 9 e0 00 04
        E 7 e0 00 02
        E 0 e0 00 00
        E 1804 e0 00 02
        E 9 e0 00 04
        E 8 e0 00 06
        E 15 e0 00 08
        E 7 e0 00 0a
        E 8 e0 00 0c
        E 8 e0 00 0e
        E 14 e0 00 10
        E 9 e0 00 12
        E 7 e0 00 14
        E 9 e0 00 16
        E 7 e0 00 18
        E 14 e0 00 1a
        E 9 e0 00 1c
        E 7 e0 00 1e
        E 9 e0 00 20
        E 8 e0 00 22
        E 13 e0 00 24
        E 9 e0 00 26
        E 7 e0 00 28
        E 8 e0 00 2a
        E 9 e0 00 2c
        E 7 e0 00 2e
        E 2 e0 00 30
        E 2 e0 00 32
        E 7 e0 00 34
        E 9 e0 00 36
        E 7 e0 00 38
        E 8 e0 00 3a
        E 15 e0 00 3c
        E 7 e0 00 3e
        E 9 e0 00 40
        E 1299 e0 00 3e
        E 22 e0 00 3c
        E 7 e0 00 3a
        E 9 e0 00 38
        E 7 e0 00 36
        E 9 e0 00 34
        E 7 e0 00 32
        E 7 e0 00 30
        E 8 e0 00 2e
        E 8 e0 00 2c
        E 8 e0 00 2a
        E 8 e0 00 28
        E 13 e0 00 26
        E 7 e0 00 24
        E 8 e0 00 22
        E 9 e0 00 20
        E 7 e0 00 1e
        E 8 e0 00 1c
        E 5 e0 00 1a
        E 7 e0 00 18
        E 9 e0 00 16
        E 7 e0 00 14
        E 9 e0 00 12
        E 8 e0 00 10
        E 5 e0 00 0e
        E 8 e0 00 0c
        E 7 e0 00 0a
        E 9 e0 00 08
        E 7 e0 00 06
        E 15 e0 00 04
        E 8 e0 00 02
        E 8 e0 00 00
        E 2030 e0 00 02
        E 8 e0 00 04
        E 9 e0 00 06
        E 7 e0 00 08
        E 8 e0 00 0a
        E 8 e0 00 0c
        E 3 e0 00 0e
        E 8 e0 00 10
        E 8 e0 00 12
        E 7 e0 00 14
        E 9 e0 00 16
        E 8 e0 00 18
        E 6 e0 00 1a
        E 8 e0 00 1c
        E 8 e0 00 1e
        E 8 e0 00 20
        E 8 e0 00 22
        E 14 e0 00 24
        E 8 e0 00 26
        E 8 e0 00 28
        E 7 e0 00 2a
        E 9 e0 00 2c
        E 14 e0 00 2e
        E 9 e0 00 30
        E 7 e0 00 32
        E 7 e0 00 34
        E 9 e0 00 36
        E 8 e0 00 38
        E 0 e0 00 3a
        E 3 e0 00 3c
        E 9 e0 00 3e
        E 7 e0 00 40
        E 1026 90 54 00
        E 337 90 54 41
        E 46 e0 00 42
        E 7 e0 00 44
        E 9 e0 00 46
        E 33 e0 00 48
        E 8 e0 00 4a
        E 8 e0 00 4c
        E 7 e0 00 4e
        E 9 e0 00 50
        E 7 e0 00 52
        E 3 e0 00 54
        E 8 e0 00 56
        E 8 e0 00 58
        E 9 e0 00 5a
        E 7 e0 00 5c
        E 8 e0 00 5e
        E 2 e0 00 60
        E 0 e0 00 62
        E 2 e0 00 64
        E 8 e0 00 66
        E 7 e0 00 68
        E 9 e0 00 6a
        E 7 e0 00 6c
        E 14 e0 00 6e
        E 9 e0 00 70
        E 7 e0 00 72
        E 8 e0 00 74
        E 9 e0 00 76
        E 13 e0 00 78
        E 9 e0 00 7a
        E 7 e0 00 7c
        E 8 e0 00 7e
        E 9 e0 7f 7f
        E 1857 e0 00 7d
        E 8 e0 00 7b
        E 8 e0 00 79
        E 14 e0 00 77
        E 8 e0 00 75
        E 8 e0 00 73
        E 9 e0 00 71
        E 13 e0 00 6f
        E 8 e0 00 6d
        E 8 e0 00 6b
        E 8 e0 00 69
        E 9 e0 00 67
        E 7 e0 00 65
        E 4 e0 00 63
        E 0 e0 00 61
        E 7 e0 00 5f
        E 7 e0 00 5d
        E 9 e0 00 5b
        E 8 e0 00 59
        E 22 e0 00 57
        E 7 e0 00 55
        E 8 e0 00 53
        E 9 e0 00 51
        E 7 e0 00 4f
        E 7 e0 00 4d
        E 8 e0 00 4b
        E 8 e0 00 49
        E 9 e0 00 47
        E 7 e0 00 45
        E 12 e0 00 43
        E 8 e0 00 41
        E 8 e0 00 40
        E 1515 e0 00 42
        E 34 e0 00 44
        E 8 e0 00 46
        E 8 e0 00 48
        E 7 e0 00 4a
        E 9 e0 00 4c
        E 7 e0 00 4e
        E 4 e0 00 50
        E 8 e0 00 52
        E 7 e0 00 54
        E 9 e0 00 56
        E 7 e0 00 58
        E 8 e0 00 5a
        E 7 e0 00 5c
        E 7 e0 00 5e
        E 9 e0 00 60
        E 8 e0 00 62
        E 7 e0 00 64
        E 15 e0 00 66
        E 8 e0 00 68
        E 8 e0 00 6a
        E 8 e0 00 6c
        E 7 e0 00 6e
        E 6 e0 00 70
        E 5 e0 00 72
        E 9 e0 00 74
        E 7 e0 00 76
        E 8 e0 00 78
        E 8 e0 00 7a
        E 8 e0 00 7c
        E 6 e0 00 7e
        E 9 e0 7f 7f
        E 1635 e0 00 7d
        E 0 e0 00 7b
        E 4 e0 00 79
        E 8 e0 00 77
        E 33 e0 00 75
        E 9 e0 00 73
        E 7 e0 00 71
        E 8 e0 00 6f
        E 9 e0 00 6d
        E 7 e0 00 6b
        E 4 e0 00 69
        E 0 e0 00 67
        E 7 e0 00 65
        E 8 e0 00 63
        E 8 e0 00 61
        E 7 e0 00 5f
        E 9 e0 00 5d
        E 5 e0 00 5b
        E 0 e0 00 59
        E 6 e0 00 57
        E 7 e0 00 55
        E 10 e0 00 53
        E 7 e0 00 51
        E 8 e0 00 4f
        E 12 e0 00 4d
        E 8 e0 00 4b
        E 8 e0 00 49
        E 8 e0 00 47
        E 23 e0 00 45
        E 9 e0 00 43
        E 7 e0 00 41
        E 9 e0 00 40
        E 1696 e0 00 3e
        E 9 e0 00 3c
        E 1 e0 00 3a
        E 0 e0 00 38
        E 9 e0 00 36
        E 8 e0 00 34
        E 34 e0 00 32
        E 7 e0 00 30
        E 8 e0 00 2e
        E 9 e0 00 2c
        E 7 e0 00 2a
        E 7 e0 00 28
        E 4 e0 00 26
        E 7 e0 00 24
        E 9 e0 00 22
        E 8 e0 00 20
        E 7 e0 00 1e
        E 9 e0 00 1c
        E 6 e0 00 1a
        E 9 e0 00 18
        E 7 e0 00 16
        E 8 e0 00 14
        E 9 e0 00 12
        E 6 e0 00 10
        E 0 e0 00 0e
        E 4 e0 00 0c
        E 7 e0 00 0a
        E 9 e0 00 08
        E 8 e0 00 06
        E 21 e0 00 04
        E 8 e0 00 02
        E 8 e0 00 00
        E 1646 e0 00 02
        E 7 e0 00 04
        E 7 e0 00 06
        E 9 e0 00 08
        E 5 e0 00 0a
        E 9 e0 00 0c
        E 8 e0 00 0e
        E 8 e0 00 10
        E 8 e0 00 12
        E 13 e0 00 14
        E 9 e0 00 16
        E 8 e0 00 18
        E 7 e0 00 1a
        E 9 e0 00 1c
        E 7 e0 00 1e
        E 3 e0 00 20
        E 0 e0 00 22
        E 9 e0 00 24
        E 8 e0 00 26
        E 7 e0 00 28
        E 9 e0 00 2a
        E 7 e0 00 2c
        E 5 e0 00 2e
        E 0 e0 00 30
        E 7 e0 00 32
        E 8 e0 00 34
        E 8 e0 00 36
        E 8 e0 00 38
        E 14 e0 00 3a
        E 8 e0 00 3c
        E 8 e0 00 3e
        E 8 e0 00 40
        E 1717 e0 00 3e
        E 9 e0 00 3c
        E 7 e0 00 3a
        E 8 e0 00 38
        E 8 e0 00 36
        E 8 e0 00 34
        E 7 e0 00 32
        E 8 e0 00 30
        E 7 e0 00 2e
        E 9 e0 00 2c
        E 7 e0 00 2a
        E 16 e0 00 28
        E 7 e0 00 26
        E 7 e0 00 24
        E 9 e0 00 22
        E 8 e0 00 20
        E 6 e0 00 1e
        E 5 e0 00 1c
        E 7 e0 00 1a
        E 9 e0 00 18
        E 7 e0 00 16
        E 8 e0 00 14
        E 8 e0 00 12
        E 1 e0 00 10
        E 0 e0 00 0e
        E 2 e0 00 0c
        E 8 e0 00 0a
        E 9 e0 00 08
        E 7 e0 00 06
        E 8 e0 00 04
        E 15 e0 00 02
        E 7 e0 00 00
        E 1601 e0 00 02
        E 8 e0 00 04
        E 8 e0 00 06
        E 7 e0 00 08
        E 15 e0 00 0a
        E 8 e0 00 0c
        E 8 e0 00 0e
        E 8 e0 00 10
        E 7 e0 00 12
        E 9 e0 00 14
        E 3 e0 00 16
        E 7 e0 00 18
        E 9 e0 00 1a
        E 7 e0 00 1c
        E 9 e0 00 1e
        E 7 e0 00 20
        E 6 e0 00 22
        E 0 e0 00 24
        E 0 e0 00 26
        E 5 e0 00 28
        E 9 e0 00 2a
        E 7 e0 00 2c
        E 9 e0 00 2e
        E 8 e0 00 30
        E 13 e0 00 32
        E 7 e0 00 34
        E 8 e0 00 36
        E 24 e0 00 38
        E 7 e0 00 3a
        E 8 e0 00 3c
        E 8 e0 00 3e
        E 8 e0 00 40
        E 1314 90 54 00
        E 361 90 54 2c
        E 76 e0 00 42
        E 2 e0 00 44
        E 8 e0 00 46
        E 8 e0 00 48
        E 9 e0 00 4a
        E 7 e0 00 4c
        E 8 e0 00 4e
        E 3 e0 00 50
        E 0 e0 00 52
        E 8 e0 00 54
        E 9 e0 00 56
        E 7 e0 00 58
        E 9 e0 00 5a
        E 13 e0 00 5c
        E 8 e0 00 5e
        E 9 e0 00 60
        E 7 e0 00 62
        E 8 e0 00 64
        E 15 e0 00 66
        E 7 e0 00 68
        E 9 e0 00 6a
        E 7 e0 00 6c
        E 23 e0 00 6e
        E 8 e0 00 70
        E 8 e0 00 72
        E 8 e0 00 74
        E 8 e0 00 76
        E 7 e0 00 78
        E 7 e0 00 7a
        E 7 e0 00 7c
        E 8 e0 00 7e
        E 8 e0 7f 7f
        E 1755 e0 00 7d
        E 8 e0 00 7b
        E 8 e0 00 79
        E 7 e0 00 77
        E 9 e0 00 75
        E 12 e0 00 73
        E 7 e0 00 71
        E 10 e0 00 6f
        E 6 e0 00 6d
        E 9 e0 00 6b
        E 8 e0 00 69
        E 4 e0 00 67
        E 8 e0 00 65
        E 7 e0 00 63
        E 9 e0 00 61
        E 7 e0 00 5f
        E 8 e0 00 5d
        E 5 e0 00 5b
        E 0 e0 00 59
        E 0 e0 00 57
        E 6 e0 00 55
        E 8 e0 00 53
        E 8 e0 00 51
        E 8 e0 00 4f
        E 9 e0 00 4d
        E 13 e0 00 4b
        E 9 e0 00 49
        E 8 e0 00 47
        E 7 e0 00 45
        E 15 e0 00 43
        E 7 e0 00 41
        E 8 e0 00 40
        E 1601 e0 00 42
        E 7 e0 00 44
        E 8 e0 00 46
        E 8 e0 00 48
        E 8 e0 00 4a
        E 1 e0 00 4c
        E 2 e0 00 4e
        E 8 e0 00 50
        E 8 e0 00 52
        E 8 e0 00 54
        E 9 e0 00 56
        E 13 e0 00 58
        E 8 e0 00 5a
        E 9 e0 00 5c
        E 7 e0 00 5e
        E 8 e0 00 60
        E 15 e0 00 62
        E 7 e0 00 64
        E 9 e0 00 66
        E 7 e0 00 68
        E 8 e0 00 6a
        E 8 e0 00 6c
        E 0 e0 00 6e
        E 4 e0 00 70
        E 7 e0 00 72
        E 8 e0 00 74
        E 8 e0 00 76
        E 8 e0 00 78
        E 15 e0 00 7a
        E 7 e0 00 7c
        E 8 e0 00 7e
        E 9 e0 7f 7f
        E 1754 e0 00 7d
        E 8 e0 00 7b
        E 8 e0 00 79
        E 8 e0 00 77
        E 8 e0 00 75
        E 9 e0 00 73
        E 3 e0 00 71
        E 0 e0 00 6f
        E 7 e0 00 6d
        E 8 e0 00 6b
        E 8 e0 00 69
        E 8 e0 00 67
        E 14 e0 00 65
        E 9 e0 00 63
        E 7 e0 00 61
        E 8 e0 00 5f
        E 21 e0 00 5d
        E 8 e0 00 5b
        E 9 e0 00 59
        E 7 e0 00 57
        E 8 e0 00 55
        E 8 e0 00 53
        E 6 e0 00 51
        E 9 e0 00 4f
        E 7 e0 00 4d
        E 8 e0 00 4b
        E 8 e0 00 49
        E 14 e0 00 47
        E 9 e0 00 45
        E 7 e0 00 43
        E 8 e0 00 41
        E 8 e0 00 40
        E 1687 e0 00 3e
        E 8 e0 00 3c
        E 15 e0 00 3a
        E 7 e0 00 38
        E 9 e0 00 36
        E 7 e0 00 34
        E 15 e0 00 32
        E 8 e0 00 30
        E 7 e0 00 2e
        E 9 e0 00 2c
        E 7 e0 00 2a
        E 15 e0 00 28
        E 8 e0 00 26
        E 7 e0 00 24
        E 9 e0 00 22
        E 7 e0 00 20
        E 8 e0 00 1e
        E 4 e0 00 1c
        E 0 e0 00 1a
        E 7 e0 00 18
        E 9 e0 00 16
        E 7 e0 00 14
        E 9 e0 00 12
        E 7 e0 00 10
        E 6 e0 00 0e
        E 0 e0 00 0c
        E 5 e0 00 0a
        E 9 e0 00 08
        E 7 e0 00 06
        E 8 e0 00 04
        E 15 e0 00 02
        E 8 e0 00 00
        E 1600 e0 00 02
        E 7 e0 00 04
        E 9 e0 00 06
        E 7 e0 00 08
        E 8 e0 00 0a
        E 15 e0 00 0c
        E 7 e0 00 0e
        E 9 e0 00 10
        E 8 e0 00 12
        E 7 e0 00 14
        E 9 e0 00 16
        E 0 e0 00 18
        E 1 e0 00 1a
        E 8 e0 00 1c
        E 7 e0 00 1e
        E 9 e0 00 20
        E 7 e0 00 22
        E 14 e0 00 24
        E 9 e0 00 26
        E 7 e0 00 28
        E 9 e0 00 2a
        E 8 e0 00 2c
        E 13 e0 00 2e
        E 9 e0 00 30
        E 7 e0 00 32
        E 9 e0 00 34
        E 8 e0 00 36
        E 7 e0 00 38
        E 5 e0 00 3a
        E 8 e0 00 3c
        E 7 e0 00 3e
        E 9 e0 00 40
        E 1677 e0 00 3e
        E 9 e0 00 3c
        E 32 e0 00 3a
        E 9 e0 00 38
        E 7 e0 00 36
        E 8 e0 00 34
        E 8 e0 00 32
        E 6 e0 00 30
        E 4 e0 00 2e
        E 9 e0 00 2c
        E 7 e0 00 2a
        E 9 e0 00 28
        E 7 e0 00 26
        E 8 e0 00 24
        E 1 e0 00 22
        E 0 e0 00 20
        E 3 e0 00 1e
        E 8 e0 00 1c
        E 7 e0 00 1a
        E 9 e0 00 18
        E 7 e0 00 16
        E 14 e0 00 14
        E 9 e0 00 12
        E 7 e0 00 10
        E 9 e0 00 0e
        E 8 e0 00 0c
        E 15 e0 00 0a
        E 7 e0 00 08
        E 8 e0 00 06
        E 8 e0 00 04
        E 8 e0 00 02
        E 15 e0 00 00
        E 1642 e0 00 02
        E 8 e0 00 04
        E 9 e0 00 06
        E 7 e0 00 08
        E 8 e0 00 0a
        E 15 e0 00 0c
        E 7 e0 00 0e
        E 9 e0 00 10
        E 7 e0 00 12
        E 8 e0 00 14
        E 15 e0 00 16
        E 7 e0 00 18
        E 8 e0 00 1a
        E 8 e0 00 1c
        E 8 e0 00 1e
        E 9 e0 00 20
        E 2 e0 00 22
        E 8 e0 00 24
        E 8 e0 00 26
        E 8 e0 00 28
        E 7 e0 00 2a
        E 9 e0 00 2c
        E 6 e0 00 2e
        E 9 e0 00 30
        E 7 e0 00 32
        E 8 e0 00 34
        E 8 e0 00 36
        E 8 e0 00 38
        E 1 e0 00 3a
        E 2 e0 00 3c
        E 8 e0 00 3e
        E 8 e0 00 40
        E 1166 90 54 00
        E 449 90 54 34
        E 97 e0 00 42
        E 7 e0 00 44
        E 7 e0 00 46
        E 7 e0 00 48
        E 8 e0 00 4a
        E 9 e0 00 4c
        E 7 e0 00 4e
        E 15 e0 00 50
        E 8 e0 00 52
        E 8 e0 00 54
        E 9 e0 00 56
        E 7 e0 00 58
        E 6 e0 00 5a
        E 5 e0 00 5c
        E 7 e0 00 5e
        E 9 e0 00 60
        E 7 e0 00 62
        E 8 e0 00 64
        E 9 e0 00 66
        E 6 e0 00 68
        E 9 e0 00 6a
        E 7 e0 00 6c
        E 8 e0 00 6e
        E 8 e0 00 70
        E 12 e0 00 72
        E 9 e0 00 74
        E 7 e0 00 76
        E 8 e0 00 78
        E 16 e0 00 7a
        E 7 e0 00 7c
        E 8 e0 00 7e
        E 8 e0 7f 7f
        E 1857 e0 00 7d
        E 9 e0 00 7b
        E 7 e0 00 79
        E 9 e0 00 77
        E 14 e0 00 75
        E 7 e0 00 73
        E 9 e0 00 71
        E 7 e0 00 6f
        E 9 e0 00 6d
        E 7 e0 00 6b
        E 3 e0 00 69
        E 9 e0 00 67
        E 8 e0 00 65
        E 8 e0 00 63
        E 8 e0 00 61
        E 7 e0 00 5f
        E 4 e0 00 5d
        E 0 e0 00 5b
        E 0 e0 00 59
        E 8 e0 00 57
        E 7 e0 00 55
        E 34 e0 00 53
        E 8 e0 00 51
        E 8 e0 00 4f
        E 8 e0 00 4d
        E 8 e0 00 4b
        E 8 e0 00 49
        E 3 e0 00 47
        E 8 e0 00 45
        E 8 e0 00 43
        E 8 e0 00 41
        E 9 e0 00 40
        E 1524 e0 00 42
        E 0 e0 00 44
        E 3 e0 00 46
        E 8 e0 00 48
        E 8 e0 00 4a
        E 33 e0 00 4c
        E 8 e0 00 4e
        E 7 e0 00 50
        E 9 e0 00 52
        E 8 e0 00 54
        E 6 e0 00 56
        E 4 e0 00 58
        E 8 e0 00 5a
        E 8 e0 00 5c
        E 8 e0 00 5e
        E 7 e0 00 60
        E 9 e0 00 62
        E 0 e0 00 64
        E 0 e0 00 66
        E 2 e0 00 68
        E 8 e0 00 6a
        E 8 e0 00 6c
        E 33 e0 00 6e
        E 9 e0 00 70
        E 8 e0 00 72
        E 7 e0 00 74
        E 9 e0 00 76
        E 5 e0 00 78
        E 5 e0 00 7a
        E 9 e0 00 7c
        E 7 e0 00 7e
        E 9 e0 7f 7f
        E 1592 e0 00 7d
        E 8 e0 00 7b
        E 9 e0 00 79
        E 13 e0 00 77
        E 9 e0 00 75
        E 8 e0 00 73
        E 7 e0 00 71
        E 9 e0 00 6f
        E 7 e0 00 6d
        E 5 e0 00 6b
        E 7 e0 00 69
        E 9 e0 00 67
        E 7 e0 00 65
        E 8 e0 00 63
        E 8 e0 00 61
        E 6 e0 00 5f
        E 7 e0 00 5d
        E 9 e0 00 5b
        E 8 e0 00 59
        E 8 e0 00 57
        E 14 e0 00 55
        E 7 e0 00 53
        E 9 e0 00 51
        E 8 e0 00 4f
        E 8 e0 00 4d
        E 8 e0 00 4b
        E 3 e0 00 49
        E 8 e0 00 47
        E 8 e0 00 45
        E 8 e0 00 43
        E 8 e0 00 41
        E 7 e0 00 40
        E 1592 e0 00 3e
        E 9 e0 00 3c
        E 7 e0 00 3a
        E 5 e0 00 38
        E 7 e0 00 36
        E 8 e0 00 34
        E 8 e0 00 32
        E 8 e0 00 30
        E 7 e0 00 2e
        E 7 e0 00 2c
        E 8 e0 00 2a
        E 8 e0 00 28
        E 8 e0 00 26
        E 7 e0 00 24
        E 8 e0 00 22
        E 0 e0 00 20
        E 3 e0 00 1e
        E 9 e0 00 1c
        E 8 e0 00 1a
        E 8 e0 00 18
        E 8 e0 00 16
        E 14 e0 00 14
        E 8 e0 00 12
        E 8 e0 00 10
        E 8 e0 00 0e
        E 8 e0 00 0c
        E 7 e0 00 0a
        E 0 e0 00 08
        E 5 e0 00 06
        E 7 e0 00 04
        E 8 e0 00 02
        E 8 e0 00 00
        E 1731 e0 00 02
        E 8 e0 00 04
        E 8 e0 00 06
        E 7 e0 00 08
        E 1 e0 00 0a
        E 0 e0 00 0c
        E 0 e0 00 0e
        E 0 e0 00 10
        E 5 e0 00 12
        E 9 e0 00 14
        E 33 e0 00 16
        E 9 e0 00 18
        E 8 e0 00 1a
        E 7 e0 00 1c
        E 9 e0 00 1e
        E 7 e0 00 20
        E 3 e0 00 22
        E 0 e0 00 24
        E 8 e0 00 26
        E 8 e0 00 28
        E 8 e0 00 2a
        E 7 e0 00 2c
        E 15 e0 00 2e
        E 8 e0 00 30
        E 8 e0 00 32
        E 8 e0 00 34
        E 7 e0 00 36
        E 15 e0 00 38
        E 8 e0 00 3a
        E 7 e0 00 3c
        E 9 e0 00 3e
        E 7 e0 00 40
        E 1749 e0 00 3e
        E 0 e0 00 3c
        E 2 e0 00 3a
        E 8 e0 00 38
        E 9 e0 00 36
        E 33 e0 00 34
        E 7 e0 00 32
        E 9 e0 00 30
        E 7 e0 00 2e
        E 8 e0 00 2c
        E 6 e0 00 2a
        E 6 e0 00 28
        E 8 e0 00 26
        E 8 e0 00 24
        E 7 e0 00 22
        E 9 e0 00 20
        E 7 e0 00 1e
        E 6 e0 00 1c
        E 8 e0 00 1a
        E 8 e0 00 18
        E 9 e0 00 16
        E 7 e0 00 14
        E 14 e0 00 12
        E 9 e0 00 10
        E 7 e0 00 0e
        E 9 e0 00 0c
        E 8 e0 00 0a
        E 4 e0 00 08
        E 7 e0 00 06
        E 7 e0 00 04
        E 8 e0 00 02
        E 9 e0 00 00
        E 1764 e0 00 02
        E 9 e0 00 04
        E 7 e0 00 06
        E 8 e0 00 08
        E 9 e0 00 0a
        E 0 e0 00 0c
        E 2 e0 00 0e
        E 8 e0 00 10
        E 8 e0 00 12
        E 9 e0 00 14
        E 7 e0 00 16
        E 14 e0 00 18
        E 9 e0 00 1a
        E 7 e0 00 1c
        E 9 e0 00 1e
        E 7 e0 00 20
        E 14 e0 00 22
        E 9 e0 00 24
        E 7 e0 00 26
        E 9 e0 00 28
        E 7 e0 00 2a
        E 8 e0 00 2c
        E 4 e0 00 2e
        E 7 e0 00 30
        E 9 e0 00 32
        E 7 e0 00 34
        E 8 e0 00 36
        E 9 e0 00 38
        E 5 e0 00 3a
        E 9 e0 00 3c
        E 7 e0 00 3e
        E 8 e0 00 40
        E 1011 90 54 00
        E 481 90 54 35
        E 99 e0 00 42
        E 8 e0 00 44
        E 7 e0 00 46
        E 9 e0 00 48
        E 6 e0 00 4a
        E 9 e0 00 4c
        E 7 e0 00 4e
        E 8 e0 00 50
        E 9 e0 00 52
        E 7 e0 00 54
        E 13 e0 00 56
        E 8 e0 00 58
        E 7 e0 00 5a
        E 9 e0 00 5c
        E 7 e0 00 5e
        E 5 e0 00 60
        E 0 e0 00 62
        E 6 e0 00 64
        E 9 e0 00 66
        E 7 e0 00 68
        E 8 e0 00 6a
        E 15 e0 00 6c
        E 7 e0 00 6e
        E 9 e0 00 70
        E 7 e0 00 72
        E 8 e0 00 74
        E 15 e0 00 76
        E 7 e0 00 78
        E 9 e0 00 7a
        E 8 e0 00 7c
        E 7 e0 00 7e
        E 9 e0 7f 7f
        E 1686 e0 00 7d
        E 7 e0 00 7b
        E 4 e0 00 79
        E 0 e0 00 77
        E 8 e0 00 75
        E 7 e0 00 73
        E 8 e0 00 71
        E 9 e0 00 6f
        E 13 e0 00 6d
        E 8 e0 00 6b
        E 8 e0 00 69
        E 8 e0 00 67
        E 9 e0 00 65
        E 13 e0 00 63
        E 8 e0 00 61
        E 8 e0 00 5f
        E 8 e0 00 5d
        E 21 e0 00 5b
        E 9 e0 00 59
        E 7 e0 00 57
        E 9 e0 00 55
        E 7 e0 00 53
        E 8 e0 00 51
        E 2 e0 00 4f
        E 0 e0 00 4d
        E 3 e0 00 4b
        E 7 e0 00 49
        E 8 e0 00 47
        E 34 e0 00 45
        E 7 e0 00 43
        E 8 e0 00 41
        E 9 e0 00 40
        E 1581 e0 00 42
        E 9 e0 00 44
        E 7 e0 00 46
        E 7 e0 00 48
        E 9 e0 00 4a
        E 5 e0 00 4c
        E 0 e0 00 4e
        E 7 e0 00 50
        E 7 e0 00 52
        E 9 e0 00 54
        E 7 e0 00 56
        E 23 e0 00 58
        E 7 e0 00 5a
        E 8 e0 00 5c
        E 9 e0 00 5e
        E 7 e0 00 60
        E 5 e0 00 62
        E 0 e0 00 64
        E 0 e0 00 66
        E 7 e0 00 68
        E 7 e0 00 6a
        E 34 e0 00 6c
        E 8 e0 00 6e
        E 7 e0 00 70
        E 9 e0 00 72
        E 7 e0 00 74
        E 8 e0 00 76
        E 2 e0 00 78
        E 0 e0 00 7a
        E 8 e0 00 7c
        E 8 e0 00 7e
        E 8 e0 7f 7f
        E 1763 e0 00 7d
        E 9 e0 00 7b
        E 7 e0 00 79
        E 8 e0 00 77
        E 8 e0 00 75
        E 8 e0 00 73
        E 8 e0 00 71
        E 7 e0 00 6f
        E 8 e0 00 6d
        E 9 e0 00 6b
        E 7 e0 00 69
        E 14 e0 00 67
        E 9 e0 00 65
        E 7 e0 00 63
        E 9 e0 00 61
        E 13 e0 00 5f
        E 8 e0 00 5d
        E 9 e0 00 5b
        E 7 e0 00 59
        E 9 e0 00 57
        E 7 e0 00 55
        E 4 e0 00 53
        E 0 e0 00 51
        E 7 e0 00 4f
        E 9 e0 00 4d
        E 7 e0 00 4b
        E 8 e0 00 49
        E 8 e0 00 47
        E 12 e0 00 45
        E 8 e0 00 43
        E 8 e0 00 41
        E 8 e0 00 40
        E 1645 e0 00 3e
        E 8 e0 00 3c
        E 14 e0 00 3a
        E 8 e0 00 38
        E 8 e0 00 36
        E 8 e0 00 34
        E 8 e0 00 32
        E 8 e0 00 30
        E 1 e0 00 2e
        E 1 e0 00 2c
        E 9 e0 00 2a
        E 8 e0 00 28
        E 7 e0 00 26
        E 9 e0 00 24
        E 14 e0 00 22
        E 7 e0 00 20
        E 9 e0 00 1e
        E 7 e0 00 1c
        E 9 e0 00 1a
        E 14 e0 00 18
        E 7 e0 00 16
        E 9 e0 00 14
        E 7 e0 00 12
        E 9 e0 00 10
        E 8 e0 00 0e
        E 2 e0 00 0c
        E 9 e0 00 0a
        E 7 e0 00 08
        E 8 e0 00 06
        E 8 e0 00 04
        E 8 e0 00 02
        E 7 e0 00 00
        E 1594 e0 00 02
        E 7 e0 00 04
        E 4 e0 00 06
        E 7 e0 00 08
        E 9 e0 00 0a
        E 7 e0 00 0c
        E 8 e0 00 0e
        E 9 e0 00 10
        E 0 e0 00 12
        E 0 e0 00 14
        E 3 e0 00 16
        E 7 e0 00 18
        E 9 e0 00 1a
        E 33 e0 00 1c
        E 8 e0 00 1e
        E 8 e0 00 20
        E 7 e0 00 22
        E 9 e0 00 24
        E 5 e0 00 26
        E 5 e0 00 28
        E 8 e0 00 2a
        E 8 e0 00 2c
        E 9 e0 00 2e
        E 7 e0 00 30
        E 8 e0 00 32
        E 7 e0 00 34
        E 7 e0 00 36
        E 8 e0 00 38
        E 9 e0 00 3a
        E 7 e0 00 3c
        E 15 e0 00 3e
        E 7 e0 00 40
        E 1643 e0 00 3e
        E 8 e0 00 3c
        E 8 e0 00 3a
        E 8 e0 00 38
        E 14 e0 00 36
        E 9 e0 00 34
        E 7 e0 00 32
        E 9 e0 00 30
        E 7 e0 00 2e
        E 8 e0 00 2c
        E 3 e0 00 2a
        E 8 e0 00 28
        E 9 e0 00 26
        E 7 e0 00 24
        E 8 e0 00 22
        E 8 e0 00 20
        E 7 e0 00 1e
        E 9 e0 00 1c
        E 7 e0 00 1a
        E 7 e0 00 18
        E 9 e0 00 16
        E 14 e0 00 14
        E 9 e0 00 12
        E 7 e0 00 10
        E 8 e0 00 0e
        E 8 e0 00 0c
        E 8 e0 00 0a
        E 3 e0 00 08
        E 8 e0 00 06
        E 7 e0 00 04
        E 9 e0 00 02
        E 8 e0 00 00
        E 1753 e0 00 02
        E 8 e0 00 04
        E 8 e0 00 06
        E 8 e0 00 08
        E 8 e0 00 0a
        E 8 e0 00 0c
        E 5 e0 00 0e
        E 8 e0 00 10
        E 8 e0 00 12
        E 9 e0 00 14
        E 7 e0 00 16
        E 14 e0 00 18
        E 9 e0 00 1a
        E 7 e0 00 1c
        E 9 e0 00 1e
        E 7 e0 00 20
        E 6 e0 00 22
        E 6 e0 00 24
        E 8 e0 00 26
        E 7 e0 00 28
        E 9 e0 00 2a
        E 7 e0 00 2c
        E 8 e0 00 2e
        E 0 e0 00 30
        E 0 e0 00 32
        E 3 e0 00 34
        E 8 e0 00 36
        E 34 e0 00 38
        E 7 e0 00 3a
        E 8 e0 00 3c
        E 9 e0 00 3e
        E 7 e0 00 40
        E 1137 90 54 00
        E 492 90 54 3d
        E 77 e0 00 42
        E 3 e0 00 44
        E 9 e0 00 46
        E 7 e0 00 48
        E 8 e0 00 4a
        E 8 e0 00 4c
        E 8 e0 00 4e
        E 3 e0 00 50
        E 0 e0 00 52
        E 0 e0 00 54
        E 9 e0 00 56
        E 7 e0 00 58
        E 7 e0 00 5a
        E 9 e0 00 5c
        E 14 e0 00 5e
        E 9 e0 00 60
        E 7 e0 00 62
        E 8 e0 00 64
        E 22 e0 00 66
        E 7 e0 00 68
        E 9 e0 00 6a
        E 7 e0 00 6c
        E 8 e0 00 6e
        E 9 e0 00 70
        E 6 e0 00 72
        E 8 e0 00 74
        E 8 e0 00 76
        E 8 e0 00 78
        E 9 e0 00 7a
        E 11 e0 00 7c
        E 8 e0 00 7e
        E 8 e0 7f 7f
        E 1730 e0 00 7d
        E 8 e0 00 7b
        E 7 e0 00 79
        E 9 e0 00 77
        E 14 e0 00 75
        E 8 e0 00 73
        E 8 e0 00 71
        E 7 e0 00 6f
        E 9 e0 00 6d
        E 14 e0 00 6b
        E 8 e0 00 69
        E 8 e0 00 67
        E 7 e0 00 65
        E 9 e0 00 63
        E 13 e0 00 61
        E 7 e0 00 5f
        E 9 e0 00 5d
        E 7 e0 00 5b
        E 15 e0 00 59
        E 8 e0 00 57
        E 8 e0 00 55
        E 8 e0 00 53
        E 7 e0 00 51
        E 9 e0 00 4f
        E 5 e0 00 4d
        E 6 e0 00 4b
        E 8 e0 00 49
        E 7 e0 00 47
        E 9 e0 00 45
        E 8 e0 00 43
        E 6 e0 00 41
        E 0 e0 00 40
        E 1610 e0 00 42
        E 8 e0 00 44
        E 8 e0 00 46
        E 7 e0 00 48
        E 9 e0 00 4a
        E 7 e0 00 4c
        E 3 e0 00 4e
        E 8 e0 00 50
        E 8 e0 00 52
        E 8 e0 00 54
        E 8 e0 00 56
        E 7 e0 00 58
        E 6 e0 00 5a
        E 7 e0 00 5c
        E 9 e0 00 5e
        E 8 e0 00 60
        E 7 e0 00 62
        E 15 e0 00 64
        E 8 e0 00 66
        E 7 e0 00 68
        E 9 e0 00 6a
        E 7 e0 00 6c
        E 9 e0 00 6e
        E 4 e0 00 70
        E 7 e0 00 72
        E 9 e0 00 74
        E 7 e0 00 76
        E 8 e0 00 78
        E 9 e0 00 7a
        E 1 e0 00 7c
        E 0 e0 00 7e
        E 0 e0 7f 7f
        E 1727 e0 00 7d
        E 7 e0 00 7b
        E 5 e0 00 79
        E 5 e0 00 77
        E 9 e0 00 75
        E 7 e0 00 73
        E 9 e0 00 71
        E 8 e0 00 6f
        E 6 e0 00 6d
        E 0 e0 00 6b
        E 0 e0 00 69
        E 4 e0 00 67
        E 8 e0 00 65
        E 7 e0 00 63
        E 9 e0 00 61
        E 8 e0 00 5f
        E 15 e0 00 5d
        E 7 e0 00 5b
        E 8 e0 00 59
        E 8 e0 00 57
        E 8 e0 00 55
        E 14 e0 00 53
        E 8 e0 00 51
        E 8 e0 00 4f
        E 7 e0 00 4d
        E 15 e0 00 4b
        E 8 e0 00 49
        E 8 e0 00 47
        E 8 e0 00 45
        E 9 e0 00 43
        E 13 e0 00 41
        E 8 e0 00 40
        E 1596 e0 00 3e
        E 0 e0 00 3c
        E 2 e0 00 3a
        E 9 e0 00 38
        E 8 e0 00 36
        E 8 e0 00 34
        E 8 e0 00 32
        E 7 e0 00 30
        E 2 e0 00 2e
        E 2 e0 00 2c
        E 8 e0 00 2a
        E 8 e0 00 28
        E 31 e0 00 26
        E 9 e0 00 24
        E 8 e0 00 22
        E 8 e0 00 20
        E 8 e0 00 1e
        E 7 e0 00 1c
        E 4 e0 00 1a
        E 8 e0 00 18
        E 8 e0 00 16
        E 8 e0 00 14
        E 9 e0 00 12
        E 7 e0 00 10
        E 6 e0 00 0e
        E 8 e0 00 0c
        E 8 e0 00 0a
        E 7 e0 00 08
        E 9 e0 00 06
        E 7 e0 00 04
        E 0 e0 00 02
        E 4 e0 00 00
        E 1879 e0 00 02
        E 7 e0 00 04
        E 9 e0 00 06
        E 7 e0 00 08
        E 14 e0 00 0a
        E 9 e0 00 0c
        E 7 e0 00 0e
        E 9 e0 00 10
        E 8 e0 00 12
        E 7 e0 00 14
        E 2 e0 00 16
        E 0 e0 00 18
        E 7 e0 00 1a
        E 9 e0 00 1c
        E 7 e0 00 1e
        E 9 e0 00 20
        E 14 e0 00 22
        E 7 e0 00 24
        E 9 e0 00 26
        E 7 e0 00 28
        E 9 e0 00 2a
        E 14 e0 00 2c
        E 7 e0 00 2e
        E 9 e0 00 30
        E 8 e0 00 32
        E 7 e0 00 34
        E 9 e0 00 36
        E 2 e0 00 38
        E 9 e0 00 3a
        E 8 e0 00 3c
        E 7 e0 00 3e
        E 9 e0 00 40
        E 1486 e0 00 3e
        E 8 e0 00 3c
        E 9 e0 00 3a
        E 7 e0 00 38
        E 8 e0 00 36
        E 8 e0 00 34
        E 1 e0 00 32
        E 3 e0 00 30
        E 7 e0 00 2e
        E 8 e0 00 2c
        E 8 e0 00 2a
        E 8 e0 00 28
        E 14 e0 00 26
        E 8 e0 00 24
        E 8 e0 00 22
        E 8 e0 00 20
        E 8 e0 00 1e
        E 9 e0 00 1c
        E 1 e0 00 1a
        E 8 e0 00 18
        E 8 e0 00 16
        E 9 e0 00 14
        E 8 e0 00 12
        E 14 e0 00 10
        E 9 e0 00 0e
        E 7 e0 00 0c
        E 7 e0 00 0a
        E 9 e0 00 08
        E 8 e0 00 06
        E 2 e0 00 04
        E 0 e0 00 02
        E 3 e0 00 00
        E 1722 e0 00 02
        E 8 e0 00 04
        E 5 e0 00 06
        E 6 e0 00 08
        E 7 e0 00 0a
        E 9 e0 00 0c
        E 7 e0 00 0e
        E 9 e0 00 10
        E 7 e0 00 12
        E 7 e0 00 14
        E 9 e0 00 16
        E 7 e0 00 18
        E 9 e0 00 1a
        E 13 e0 00 1c
        E 8 e0 00 1e
        E 9 e0 00 20
        E 7 e0 00 22
        E 9 e0 00 24
        E 7 e0 00 26
        E 4 e0 00 28
        E 8 e0 00 2a
        E 7 e0 00 2c
        E 9 e0 00 2e
        E 7 e0 00 30
        E 8 e0 00 32
        E 6 e0 00 34
        E 0 e0 00 36
        E 0 e0 00 38
        E 5 e0 00 3a
        E 8 e0 00 3c
        E 34 e0 00 3e
        E 7 e0 00 40
        E 1717 90 54 00
        E 5406 b0 7b 00
        CCINTERP 32
        CHASE_CC_TAKEOFFS 1
        GUID {6FCD8956-47F1-4305-8630-F9A69CE73FF3}
        IGNTEMPO 0 120 4 4
        SRCCOLOR 20
      >
      TAKE NULL
    >
    <ITEM
      POSITION 99.41457333333332
      SNAPOFFS 0
      LENGTH 0.00001
      LOOP 1
      ALLTAKES 0
      FADEIN 1 0 0 1 0 0
      FADEOUT 1 0 0 1 0 0
      MUTE 0 0
      SEL 0
      IGUID {AD20F44F-420D-4C65-B5D4-6387D6228F08}
      IID 68
      NAME "07-Recorded MIDI"
      VOLPAN 1 0 1 -1
      SOFFS 8.74212719497928 17.48425438995855
      PLAYRATE 1 1 0 -1 0 0.0025
      CHANMODE 0
      GUID {8903CF73-C580-4D96-B859-9BCF830F4BD7}
      RECPASS 3
      <SOURCE MIDI
        HASDATA 1 960 QN
        CCINTERP 32
        POOLEDEVTS {21DB86A6-C2BB-4B57-A0AC-592A198A9F62}
        E 10278 90 54 3b
        E 82 e0 00 42
        E 7 e0 00 44
        E 7 e0 00 46
        E 16 e0 00 48
        E 7 e0 00 4a
        E 9 e0 00 4c
        E 7 e0 00 4e
        E 9 e0 00 50
        E 7 e0 00 52
        E 3 e0 00 54
        E 9 e0 00 56
        E 7 e0 00 58
        E 9 e0 00 5a
        E 7 e0 00 5c
        E 8 e0 00 5e
        E 7 e0 00 60
        E 7 e0 00 62
        E 8 e0 00 64
        E 8 e0 00 66
        E 8 e0 00 68
        E 15 e0 00 6a
        E 7 e0 00 6c
        E 9 e0 00 6e
        E 8 e0 00 70
        E 7 e0 00 72
        E 7 e0 00 74
        E 4 e0 00 76
        E 9 e0 00 78
        E 8 e0 00 7a
        E 7 e0 00 7c
        E 9 e0 00 7e
        E 7 e0 7f 7f
        E 1703 e0 00 7d
        E 9 e0 00 7b
        E 7 e0 00 79
        E 8 e0 00 77
        E 8 e0 00 75
        E 4 e0 00 73
        E 0 e0 00 71
        E 7 e0 00 6f
        E 8 e0 00 6d
        E 8 e0 00 6b
        E 8 e0 00 69
        E 7 e0 00 67
        E 15 e0 00 65
        E 8 e0 00 63
        E 7 e0 00 61
        E 9 e0 00 5f
        E 13 e0 00 5d
        E 9 e0 00 5b
        E 8 e0 00 59
        E 7 e0 00 57
        E 9 e0 00 55
        E 14 e0 00 53
        E 7 e0 00 51
        E 9 e0 00 4f
        E 7 e0 00 4d
        E 9 e0 00 4b
        E 8 e0 00 49
        E 1 e0 00 47
        E 2 e0 00 45
        E 8 e0 00 43
        E 8 e0 00 41
        E 8 e0 00 40
        E 1599 e0 00 42
        E 8 e0 00 44
        E 8 e0 00 46
        E 8 e0 00 48
        E 1 e0 00 4a
        E 2 e0 00 4c
        E 8 e0 00 4e
        E 9 e0 00 50
        E 7 e0 00 52
        E 9 e0 00 54
        E 7 e0 00 56
        E 2 e0 00 58
        E 1 e0 00 5a
        E 9 e0 00 5c
        E 8 e0 00 5e
        E 33 e0 00 60
        E 8 e0 00 62
        E 8 e0 00 64
        E 7 e0 00 66
        E 9 e0 00 68
        E 6 e0 00 6a
        E 4 e0 00 6c
        E 8 e0 00 6e
        E 7 e0 00 70
        E 9 e0 00 72
        E 7 e0 00 74
        E 8 e0 00 76
        E 2 e0 00 78
        E 0 e0 00 7a
        E 0 e0 00 7c
        E 8 e0 00 7e
        E 8 e0 7f 7f
        E 1731 e0 00 7d
        E 9 e0 00 7b
        E 7 e0 00 79
        E 8 e0 00 77
        E 9 e0 00 75
        E 3 e0 00 73
        E 0 e0 00 71
        E 0 e0 00 6f
        E 0 e0 00 6d
        E 4 e0 00 6b
        E 8 e0 00 69
        E 7 e0 00 67
        E 9 e0 00 65
        E 7 e0 00 63
        E 16 e0 00 61
        E 7 e0 00 5f
        E 9 e0 00 5d
        E 7 e0 00 5b
        E 8 e0 00 59
        E 15 e0 00 57
        E 7 e0 00 55
        E 8 e0 00 53
        E 22 e0 00 51
        E 8 e0 00 4f
        E 9 e0 00 4d
        E 7 e0 00 4b
        E 9 e0 00 49
        E 7 e0 00 47
        E 6 e0 00 45
        E 9 e0 00 43
        E 7 e0 00 41
        E 8 e0 00 40
        E 1686 e0 00 3e
        E 9 e0 00 3c
        E 20 e0 00 3a
        E 9 e0 00 38
        E 8 e0 00 36
        E 7 e0 00 34
        E 9 e0 00 32
        E 7 e0 00 30
        E 6 e0 00 2e
        E 8 e0 00 2c
        E 7 e0 00 2a
        E 9 e0 00 28
        E 8 e0 00 26
        E 13 e0 00 24
        E 9 e0 00 22
        E 8 e0 00 20
        E 8 e0 00 1e
        E 8 e0 00 1c
        E 7 e0 00 1a
        E 4 e0 00 18
        E 8 e0 00 16
        E 8 e0 00 14
        E 8 e0 00 12
        E 7 e0 00 10
        E 9 e0 00 0e
        E 6 e0 00 0c
        E 9 e0 00 0a
        E 7 e0 00 08
        E 8 e0 00 06
        E 9 e0 00 04
        E 7 e0 00 02
        E 0 e0 00 00
        E 1804 e0 00 02
        E 9 e0 00 04
        E 8 e0 00 06
        E 15 e0 00 08
        E 7 e0 00 0a
        E 8 e0 00 0c
        E 8 e0 00 0e
        E 14 e0 00 10
        E 9 e0 00 12
        E 7 e0 00 14
        E 9 e0 00 16
        E 7 e0 00 18
        E 14 e0 00 1a
        E 9 e0 00 1c
        E 7 e0 00 1e
        E 9 e0 00 20
        E 8 e0 00 22
        E 13 e0 00 24
        E 9 e0 00 26
        E 7 e0 00 28
        E 8 e0 00 2a
        E 9 e0 00 2c
        E 7 e0 00 2e
        E 2 e0 00 30
        E 2 e0 00 32
        E 7 e0 00 34
        E 9 e0 00 36
        E 7 e0 00 38
        E 8 e0 00 3a
        E 15 e0 00 3c
        E 7 e0 00 3e
        E 9 e0 00 40
        E 1299 e0 00 3e
        E 22 e0 00 3c
        E 7 e0 00 3a
        E 9 e0 00 38
        E 7 e0 00 36
        E 9 e0 00 34
        E 7 e0 00 32
        E 7 e0 00 30
        E 8 e0 00 2e
        E 8 e0 00 2c
        E 8 e0 00 2a
        E 8 e0 00 28
        E 13 e0 00 26
        E 7 e0 00 24
        E 8 e0 00 22
        E 9 e0 00 20
        E 7 e0 00 1e
        E 8 e0 00 1c
        E 5 e0 00 1a
        E 7 e0 00 18
        E 9 e0 00 16
        E 7 e0 00 14
        E 9 e0 00 12
        E 8 e0 00 10
        E 5 e0 00 0e
        E 8 e0 00 0c
        E 7 e0 00 0a
        E 9 e0 00 08
        E 7 e0 00 06
        E 15 e0 00 04
        E 8 e0 00 02
        E 8 e0 00 00
        E 2030 e0 00 02
        E 8 e0 00 04
        E 9 e0 00 06
        E 7 e0 00 08
        E 8 e0 00 0a
        E 8 e0 00 0c
        E 3 e0 00 0e
        E 8 e0 00 10
        E 8 e0 00 12
        E 7 e0 00 14
        E 9 e0 00 16
        E 8 e0 00 18
        E 6 e0 00 1a
        E 8 e0 00 1c
        E 8 e0 00 1e
        E 8 e0 00 20
        E 8 e0 00 22
        E 14 e0 00 24
        E 8 e0 00 26
        E 8 e0 00 28
        E 7 e0 00 2a
        E 9 e0 00 2c
        E 14 e0 00 2e
        E 9 e0 00 30
        E 7 e0 00 32
        E 7 e0 00 34
        E 9 e0 00 36
        E 8 e0 00 38
        E 0 e0 00 3a
        E 3 e0 00 3c
        E 9 e0 00 3e
        E 7 e0 00 40
        E 1026 90 54 00
        E 337 90 54 41
        E 46 e0 00 42
        E 7 e0 00 44
        E 9 e0 00 46
        E 33 e0 00 48
        E 8 e0 00 4a
        E 8 e0 00 4c
        E 7 e0 00 4e
        E 9 e0 00 50
        E 7 e0 00 52
        E 3 e0 00 54
        E 8 e0 00 56
        E 8 e0 00 58
        E 9 e0 00 5a
        E 7 e0 00 5c
        E 8 e0 00 5e
        E 2 e0 00 60
        E 0 e0 00 62
        E 2 e0 00 64
        E 8 e0 00 66
        E 7 e0 00 68
        E 9 e0 00 6a
        E 7 e0 00 6c
        E 14 e0 00 6e
        E 9 e0 00 70
        E 7 e0 00 72
        E 8 e0 00 74
        E 9 e0 00 76
        E 13 e0 00 78
        E 9 e0 00 7a
        E 7 e0 00 7c
        E 8 e0 00 7e
        E 9 e0 7f 7f
        E 1857 e0 00 7d
        E 8 e0 00 7b
        E 8 e0 00 79
        E 14 e0 00 77
        E 8 e0 00 75
        E 8 e0 00 73
        E 9 e0 00 71
        E 13 e0 00 6f
        E 8 e0 00 6d
        E 8 e0 00 6b
        E 8 e0 00 69
        E 9 e0 00 67
        E 7 e0 00 65
        E 4 e0 00 63
        E 0 e0 00 61
        E 7 e0 00 5f
        E 7 e0 00 5d
        E 9 e0 00 5b
        E 8 e0 00 59
        E 22 e0 00 57
        E 7 e0 00 55
        E 8 e0 00 53
        E 9 e0 00 51
        E 7 e0 00 4f
        E 7 e0 00 4d
        E 8 e0 00 4b
        E 8 e0 00 49
        E 9 e0 00 47
        E 7 e0 00 45
        E 12 e0 00 43
        E 8 e0 00 41
        E 8 e0 00 40
        E 1515 e0 00 42
        E 34 e0 00 44
        E 8 e0 00 46
        E 8 e0 00 48
        E 7 e0 00 4a
        E 9 e0 00 4c
        E 7 e0 00 4e
        E 4 e0 00 50
        E 8 e0 00 52
        E 7 e0 00 54
        E 9 e0 00 56
        E 7 e0 00 58
        E 8 e0 00 5a
        E 7 e0 00 5c
        E 7 e0 00 5e
        E 9 e0 00 60
        E 8 e0 00 62
        E 7 e0 00 64
        E 15 e0 00 66
        E 8 e0 00 68
        E 8 e0 00 6a
        E 8 e0 00 6c
        E 7 e0 00 6e
        E 6 e0 00 70
        E 5 e0 00 72
        E 9 e0 00 74
        E 7 e0 00 76
        E 8 e0 00 78
        E 8 e0 00 7a
        E 8 e0 00 7c
        E 6 e0 00 7e
        E 9 e0 7f 7f
        E 1635 e0 00 7d
        E 0 e0 00 7b
        E 4 e0 00 79
        E 8 e0 00 77
        E 33 e0 00 75
        E 9 e0 00 73
        E 7 e0 00 71
        E 8 e0 00 6f
        E 9 e0 00 6d
        E 7 e0 00 6b
        E 4 e0 00 69
        E 0 e0 00 67
        E 7 e0 00 65
        E 8 e0 00 63
        E 8 e0 00 61
        E 7 e0 00 5f
        E 9 e0 00 5d
        E 5 e0 00 5b
        E 0 e0 00 59
        E 6 e0 00 57
        E 7 e0 00 55
        E 10 e0 00 53
        E 7 e0 00 51
        E 8 e0 00 4f
        E 12 e0 00 4d
        E 8 e0 00 4b
        E 8 e0 00 49
        E 8 e0 00 47
        E 23 e0 00 45
        E 9 e0 00 43
        E 7 e0 00 41
        E 9 e0 00 40
        E 1696 e0 00 3e
        E 9 e0 00 3c
        E 1 e0 00 3a
        E 0 e0 00 38
        E 9 e0 00 36
        E 8 e0 00 34
        E 34 e0 00 32
        E 7 e0 00 30
        E 8 e0 00 2e
        E 9 e0 00 2c
        E 7 e0 00 2a
        E 7 e0 00 28
        E 4 e0 00 26
        E 7 e0 00 24
        E 9 e0 00 22
        E 8 e0 00 20
        E 7 e0 00 1e
        E 9 e0 00 1c
        E 6 e0 00 1a
        E 9 e0 00 18
        E 7 e0 00 16
        E 8 e0 00 14
        E 9 e0 00 12
        E 6 e0 00 10
        E 0 e0 00 0e
        E 4 e0 00 0c
        E 7 e0 00 0a
        E 9 e0 00 08
        E 8 e0 00 06
        E 21 e0 00 04
        E 8 e0 00 02
        E 8 e0 00 00
        E 1646 e0 00 02
        E 7 e0 00 04
        E 7 e0 00 06
        E 9 e0 00 08
        E 5 e0 00 0a
        E 9 e0 00 0c
        E 8 e0 00 0e
        E 8 e0 00 10
        E 8 e0 00 12
        E 13 e0 00 14
        E 9 e0 00 16
        E 8 e0 00 18
        E 7 e0 00 1a
        E 9 e0 00 1c
        E 7 e0 00 1e
        E 3 e0 00 20
        E 0 e0 00 22
        E 9 e0 00 24
        E 8 e0 00 26
        E 7 e0 00 28
        E 9 e0 00 2a
        E 7 e0 00 2c
        E 5 e0 00 2e
        E 0 e0 00 30
        E 7 e0 00 32
        E 8 e0 00 34
        E 8 e0 00 36
        E 8 e0 00 38
        E 14 e0 00 3a
        E 8 e0 00 3c
        E 8 e0 00 3e
        E 8 e0 00 40
        E 1717 e0 00 3e
        E 9 e0 00 3c
        E 7 e0 00 3a
        E 8 e0 00 38
        E 8 e0 00 36
        E 8 e0 00 34
        E 7 e0 00 32
        E 8 e0 00 30
        E 7 e0 00 2e
        E 9 e0 00 2c
        E 7 e0 00 2a
        E 16 e0 00 28
        E 7 e0 00 26
        E 7 e0 00 24
        E 9 e0 00 22
        E 8 e0 00 20
        E 6 e0 00 1e
        E 5 e0 00 1c
        E 7 e0 00 1a
        E 9 e0 00 18
        E 7 e0 00 16
        E 8 e0 00 14
        E 8 e0 00 12
        E 1 e0 00 10
        E 0 e0 00 0e
        E 2 e0 00 0c
        E 8 e0 00 0a
        E 9 e0 00 08
        E 7 e0 00 06
        E 8 e0 00 04
        E 15 e0 00 02
        E 7 e0 00 00
        E 1601 e0 00 02
        E 8 e0 00 04
        E 8 e0 00 06
        E 7 e0 00 08
        E 15 e0 00 0a
        E 8 e0 00 0c
        E 8 e0 00 0e
        E 8 e0 00 10
        E 7 e0 00 12
        E 9 e0 00 14
        E 3 e0 00 16
        E 7 e0 00 18
        E 9 e0 00 1a
        E 7 e0 00 1c
        E 9 e0 00 1e
        E 7 e0 00 20
        E 6 e0 00 22
        E 0 e0 00 24
        E 0 e0 00 26
        E 5 e0 00 28
        E 9 e0 00 2a
        E 7 e0 00 2c
        E 9 e0 00 2e
        E 8 e0 00 30
        E 13 e0 00 32
        E 7 e0 00 34
        E 8 e0 00 36
        E 24 e0 00 38
        E 7 e0 00 3a
        E 8 e0 00 3c
        E 8 e0 00 3e
        E 8 e0 00 40
        E 1314 90 54 00
        E 361 90 54 2c
        E 76 e0 00 42
        E 2 e0 00 44
        E 8 e0 00 46
        E 8 e0 00 48
        E 9 e0 00 4a
        E 7 e0 00 4c
        E 8 e0 00 4e
        E 3 e0 00 50
        E 0 e0 00 52
        E 8 e0 00 54
        E 9 e0 00 56
        E 7 e0 00 58
        E 9 e0 00 5a
        E 13 e0 00 5c
        E 8 e0 00 5e
        E 9 e0 00 60
        E 7 e0 00 62
        E 8 e0 00 64
        E 15 e0 00 66
        E 7 e0 00 68
        E 9 e0 00 6a
        E 7 e0 00 6c
        E 23 e0 00 6e
        E 8 e0 00 70
        E 8 e0 00 72
        E 8 e0 00 74
        E 8 e0 00 76
        E 7 e0 00 78
        E 7 e0 00 7a
        E 7 e0 00 7c
        E 8 e0 00 7e
        E 8 e0 7f 7f
        E 1755 e0 00 7d
        E 8 e0 00 7b
        E 8 e0 00 79
        E 7 e0 00 77
        E 9 e0 00 75
        E 12 e0 00 73
        E 7 e0 00 71
        E 10 e0 00 6f
        E 6 e0 00 6d
        E 9 e0 00 6b
        E 8 e0 00 69
        E 4 e0 00 67
        E 8 e0 00 65
        E 7 e0 00 63
        E 9 e0 00 61
        E 7 e0 00 5f
        E 8 e0 00 5d
        E 5 e0 00 5b
        E 0 e0 00 59
        E 0 e0 00 57
        E 6 e0 00 55
        E 8 e0 00 53
        E 8 e0 00 51
        E 8 e0 00 4f
        E 9 e0 00 4d
        E 13 e0 00 4b
        E 9 e0 00 49
        E 8 e0 00 47
        E 7 e0 00 45
        E 15 e0 00 43
        E 7 e0 00 41
        E 8 e0 00 40
        E 1601 e0 00 42
        E 7 e0 00 44
        E 8 e0 00 46
        E 8 e0 00 48
        E 8 e0 00 4a
        E 1 e0 00 4c
        E 2 e0 00 4e
        E 8 e0 00 50
        E 8 e0 00 52
        E 8 e0 00 54
        E 9 e0 00 56
        E 13 e0 00 58
        E 8 e0 00 5a
        E 9 e0 00 5c
        E 7 e0 00 5e
        E 8 e0 00 60
        E 15 e0 00 62
        E 7 e0 00 64
        E 9 e0 00 66
        E 7 e0 00 68
        E 8 e0 00 6a
        E 8 e0 00 6c
        E 0 e0 00 6e
        E 4 e0 00 70
        E 7 e0 00 72
        E 8 e0 00 74
        E 8 e0 00 76
        E 8 e0 00 78
        E 15 e0 00 7a
        E 7 e0 00 7c
        E 8 e0 00 7e
        E 9 e0 7f 7f
        E 1754 e0 00 7d
        E 8 e0 00 7b
        E 8 e0 00 79
        E 8 e0 00 77
        E 8 e0 00 75
        E 9 e0 00 73
        E 3 e0 00 71
        E 0 e0 00 6f
        E 7 e0 00 6d
        E 8 e0 00 6b
        E 8 e0 00 69
        E 8 e0 00 67
        E 14 e0 00 65
        E 9 e0 00 63
        E 7 e0 00 61
        E 8 e0 00 5f
        E 21 e0 00 5d
        E 8 e0 00 5b
        E 9 e0 00 59
        E 7 e0 00 57
        E 8 e0 00 55
        E 8 e0 00 53
        E 6 e0 00 51
        E 9 e0 00 4f
        E 7 e0 00 4d
        E 8 e0 00 4b
        E 8 e0 00 49
        E 14 e0 00 47
        E 9 e0 00 45
        E 7 e0 00 43
        E 8 e0 00 41
        E 8 e0 00 40
        E 1687 e0 00 3e
        E 8 e0 00 3c
        E 15 e0 00 3a
        E 7 e0 00 38
        E 9 e0 00 36
        E 7 e0 00 34
        E 15 e0 00 32
        E 8 e0 00 30
        E 7 e0 00 2e
        E 9 e0 00 2c
        E 7 e0 00 2a
        E 15 e0 00 28
        E 8 e0 00 26
        E 7 e0 00 24
        E 9 e0 00 22
        E 7 e0 00 20
        E 8 e0 00 1e
        E 4 e0 00 1c
        E 0 e0 00 1a
        E 7 e0 00 18
        E 9 e0 00 16
        E 7 e0 00 14
        E 9 e0 00 12
        E 7 e0 00 10
        E 6 e0 00 0e
        E 0 e0 00 0c
        E 5 e0 00 0a
        E 9 e0 00 08
        E 7 e0 00 06
        E 8 e0 00 04
        E 15 e0 00 02
        E 8 e0 00 00
        E 1600 e0 00 02
        E 7 e0 00 04
        E 9 e0 00 06
        E 7 e0 00 08
        E 8 e0 00 0a
        E 15 e0 00 0c
        E 7 e0 00 0e
        E 9 e0 00 10
        E 8 e0 00 12
        E 7 e0 00 14
        E 9 e0 00 16
        E 0 e0 00 18
        E 1 e0 00 1a
        E 8 e0 00 1c
        E 7 e0 00 1e
        E 9 e0 00 20
        E 7 e0 00 22
        E 14 e0 00 24
        E 9 e0 00 26
        E 7 e0 00 28
        E 9 e0 00 2a
        E 8 e0 00 2c
        E 13 e0 00 2e
        E 9 e0 00 30
        E 7 e0 00 32
        E 9 e0 00 34
        E 8 e0 00 36
        E 7 e0 00 38
        E 5 e0 00 3a
        E 8 e0 00 3c
        E 7 e0 00 3e
        E 9 e0 00 40
        E 1677 e0 00 3e
        E 9 e0 00 3c
        E 32 e0 00 3a
        E 9 e0 00 38
        E 7 e0 00 36
        E 8 e0 00 34
        E 8 e0 00 32
        E 6 e0 00 30
        E 4 e0 00 2e
        E 9 e0 00 2c
        E 7 e0 00 2a
        E 9 e0 00 28
        E 7 e0 00 26
        E 8 e0 00 24
        E 1 e0 00 22
        E 0 e0 00 20
        E 3 e0 00 1e
        E 8 e0 00 1c
        E 7 e0 00 1a
        E 9 e0 00 18
        E 7 e0 00 16
        E 14 e0 00 14
        E 9 e0 00 12
        E 7 e0 00 10
        E 9 e0 00 0e
        E 8 e0 00 0c
        E 15 e0 00 0a
        E 7 e0 00 08
        E 8 e0 00 06
        E 8 e0 00 04
        E 8 e0 00 02
        E 15 e0 00 00
        E 1642 e0 00 02
        E 8 e0 00 04
        E 9 e0 00 06
        E 7 e0 00 08
        E 8 e0 00 0a
        E 15 e0 00 0c
        E 7 e0 00 0e
        E 9 e0 00 10
        E 7 e0 00 12
        E 8 e0 00 14
        E 15 e0 00 16
        E 7 e0 00 18
        E 8 e0 00 1a
        E 8 e0 00 1c
        E 8 e0 00 1e
        E 9 e0 00 20
        E 2 e0 00 22
        E 8 e0 00 24
        E 8 e0 00 26
        E 8 e0 00 28
        E 7 e0 00 2a
        E 9 e0 00 2c
        E 6 e0 00 2e
        E 9 e0 00 30
        E 7 e0 00 32
        E 8 e0 00 34
        E 8 e0 00 36
        E 8 e0 00 38
        E 1 e0 00 3a
        E 2 e0 00 3c
        E 8 e0 00 3e
        E 8 e0 00 40
        E 1166 90 54 00
        E 449 90 54 34
        E 97 e0 00 42
        E 7 e0 00 44
        E 7 e0 00 46
        E 7 e0 00 48
        E 8 e0 00 4a
        E 9 e0 00 4c
        E 7 e0 00 4e
        E 15 e0 00 50
        E 8 e0 00 52
        E 8 e0 00 54
        E 9 e0 00 56
        E 7 e0 00 58
        E 6 e0 00 5a
        E 5 e0 00 5c
        E 7 e0 00 5e
        E 9 e0 00 60
        E 7 e0 00 62
        E 8 e0 00 64
        E 9 e0 00 66
        E 6 e0 00 68
        E 9 e0 00 6a
        E 7 e0 00 6c
        E 8 e0 00 6e
        E 8 e0 00 70
        E 12 e0 00 72
        E 9 e0 00 74
        E 7 e0 00 76
        E 8 e0 00 78
        E 16 e0 00 7a
        E 7 e0 00 7c
        E 8 e0 00 7e
        E 8 e0 7f 7f
        E 1857 e0 00 7d
        E 9 e0 00 7b
        E 7 e0 00 79
        E 9 e0 00 77
        E 14 e0 00 75
        E 7 e0 00 73
        E 9 e0 00 71
        E 7 e0 00 6f
        E 9 e0 00 6d
        E 7 e0 00 6b
        E 3 e0 00 69
        E 9 e0 00 67
        E 8 e0 00 65
        E 8 e0 00 63
        E 8 e0 00 61
        E 7 e0 00 5f
        E 4 e0 00 5d
        E 0 e0 00 5b
        E 0 e0 00 59
        E 8 e0 00 57
        E 7 e0 00 55
        E 34 e0 00 53
        E 8 e0 00 51
        E 8 e0 00 4f
        E 8 e0 00 4d
        E 8 e0 00 4b
        E 8 e0 00 49
        E 3 e0 00 47
        E 8 e0 00 45
        E 8 e0 00 43
        E 8 e0 00 41
        E 9 e0 00 40
        E 1524 e0 00 42
        E 0 e0 00 44
        E 3 e0 00 46
        E 8 e0 00 48
        E 8 e0 00 4a
        E 33 e0 00 4c
        E 8 e0 00 4e
        E 7 e0 00 50
        E 9 e0 00 52
        E 8 e0 00 54
        E 6 e0 00 56
        E 4 e0 00 58
        E 8 e0 00 5a
        E 8 e0 00 5c
        E 8 e0 00 5e
        E 7 e0 00 60
        E 9 e0 00 62
        E 0 e0 00 64
        E 0 e0 00 66
        E 2 e0 00 68
        E 8 e0 00 6a
        E 8 e0 00 6c
        E 33 e0 00 6e
        E 9 e0 00 70
        E 8 e0 00 72
        E 7 e0 00 74
        E 9 e0 00 76
        E 5 e0 00 78
        E 5 e0 00 7a
        E 9 e0 00 7c
        E 7 e0 00 7e
        E 9 e0 7f 7f
        E 1592 e0 00 7d
        E 8 e0 00 7b
        E 9 e0 00 79
        E 13 e0 00 77
        E 9 e0 00 75
        E 8 e0 00 73
        E 7 e0 00 71
        E 9 e0 00 6f
        E 7 e0 00 6d
        E 5 e0 00 6b
        E 7 e0 00 69
        E 9 e0 00 67
        E 7 e0 00 65
        E 8 e0 00 63
        E 8 e0 00 61
        E 6 e0 00 5f
        E 7 e0 00 5d
        E 9 e0 00 5b
        E 8 e0 00 59
        E 8 e0 00 57
        E 14 e0 00 55
        E 7 e0 00 53
        E 9 e0 00 51
        E 8 e0 00 4f
        E 8 e0 00 4d
        E 8 e0 00 4b
        E 3 e0 00 49
        E 8 e0 00 47
        E 8 e0 00 45
        E 8 e0 00 43
        E 8 e0 00 41
        E 7 e0 00 40
        E 1592 e0 00 3e
        E 9 e0 00 3c
        E 7 e0 00 3a
        E 5 e0 00 38
        E 7 e0 00 36
        E 8 e0 00 34
        E 8 e0 00 32
        E 8 e0 00 30
        E 7 e0 00 2e
        E 7 e0 00 2c
        E 8 e0 00 2a
        E 8 e0 00 28
        E 8 e0 00 26
        E 7 e0 00 24
        E 8 e0 00 22
        E 0 e0 00 20
        E 3 e0 00 1e
        E 9 e0 00 1c
        E 8 e0 00 1a
        E 8 e0 00 18
        E 8 e0 00 16
        E 14 e0 00 14
        E 8 e0 00 12
        E 8 e0 00 10
        E 8 e0 00 0e
        E 8 e0 00 0c
        E 7 e0 00 0a
        E 0 e0 00 08
        E 5 e0 00 06
        E 7 e0 00 04
        E 8 e0 00 02
        E 8 e0 00 00
        E 1731 e0 00 02
        E 8 e0 00 04
        E 8 e0 00 06
        E 7 e0 00 08
        E 1 e0 00 0a
        E 0 e0 00 0c
        E 0 e0 00 0e
        E 0 e0 00 10
        E 5 e0 00 12
        E 9 e0 00 14
        E 33 e0 00 16
        E 9 e0 00 18
        E 8 e0 00 1a
        E 7 e0 00 1c
        E 9 e0 00 1e
        E 7 e0 00 20
        E 3 e0 00 22
        E 0 e0 00 24
        E 8 e0 00 26
        E 8 e0 00 28
        E 8 e0 00 2a
        E 7 e0 00 2c
        E 15 e0 00 2e
        E 8 e0 00 30
        E 8 e0 00 32
        E 8 e0 00 34
        E 7 e0 00 36
        E 15 e0 00 38
        E 8 e0 00 3a
        E 7 e0 00 3c
        E 9 e0 00 3e
        E 7 e0 00 40
        E 1749 e0 00 3e
        E 0 e0 00 3c
        E 2 e0 00 3a
        E 8 e0 00 38
        E 9 e0 00 36
        E 33 e0 00 34
        E 7 e0 00 32
        E 9 e0 00 30
        E 7 e0 00 2e
        E 8 e0 00 2c
        E 6 e0 00 2a
        E 6 e0 00 28
        E 8 e0 00 26
        E 8 e0 00 24
        E 7 e0 00 22
        E 9 e0 00 20
        E 7 e0 00 1e
        E 6 e0 00 1c
        E 8 e0 00 1a
        E 8 e0 00 18
        E 9 e0 00 16
        E 7 e0 00 14
        E 14 e0 00 12
        E 9 e0 00 10
        E 7 e0 00 0e
        E 9 e0 00 0c
        E 8 e0 00 0a
        E 4 e0 00 08
        E 7 e0 00 06
        E 7 e0 00 04
        E 8 e0 00 02
        E 9 e0 00 00
        E 1764 e0 00 02
        E 9 e0 00 04
        E 7 e0 00 06
        E 8 e0 00 08
        E 9 e0 00 0a
        E 0 e0 00 0c
        E 2 e0 00 0e
        E 8 e0 00 10
        E 8 e0 00 12
        E 9 e0 00 14
        E 7 e0 00 16
        E 14 e0 00 18
        E 9 e0 00 1a
        E 7 e0 00 1c
        E 9 e0 00 1e
        E 7 e0 00 20
        E 14 e0 00 22
        E 9 e0 00 24
        E 7 e0 00 26
        E 9 e0 00 28
        E 7 e0 00 2a
        E 8 e0 00 2c
        E 4 e0 00 2e
        E 7 e0 00 30
        E 9 e0 00 32
        E 7 e0 00 34
        E 8 e0 00 36
        E 9 e0 00 38
        E 5 e0 00 3a
        E 9 e0 00 3c
        E 7 e0 00 3e
        E 8 e0 00 40
        E 1011 90 54 00
        E 481 90 54 35
        E 99 e0 00 42
        E 8 e0 00 44
        E 7 e0 00 46
        E 9 e0 00 48
        E 6 e0 00 4a
        E 9 e0 00 4c
        E 7 e0 00 4e
        E 8 e0 00 50
        E 9 e0 00 52
        E 7 e0 00 54
        E 13 e0 00 56
        E 8 e0 00 58
        E 7 e0 00 5a
        E 9 e0 00 5c
        E 7 e0 00 5e
        E 5 e0 00 60
        E 0 e0 00 62
        E 6 e0 00 64
        E 9 e0 00 66
        E 7 e0 00 68
        E 8 e0 00 6a
        E 15 e0 00 6c
        E 7 e0 00 6e
        E 9 e0 00 70
        E 7 e0 00 72
        E 8 e0 00 74
        E 15 e0 00 76
        E 7 e0 00 78
        E 9 e0 00 7a
        E 8 e0 00 7c
        E 7 e0 00 7e
        E 9 e0 7f 7f
        E 1686 e0 00 7d
        E 7 e0 00 7b
        E 4 e0 00 79
        E 0 e0 00 77
        E 8 e0 00 75
        E 7 e0 00 73
        E 8 e0 00 71
        E 9 e0 00 6f
        E 13 e0 00 6d
        E 8 e0 00 6b
        E 8 e0 00 69
        E 8 e0 00 67
        E 9 e0 00 65
        E 13 e0 00 63
        E 8 e0 00 61
        E 8 e0 00 5f
        E 8 e0 00 5d
        E 21 e0 00 5b
        E 9 e0 00 59
        E 7 e0 00 57
        E 9 e0 00 55
        E 7 e0 00 53
        E 8 e0 00 51
        E 2 e0 00 4f
        E 0 e0 00 4d
        E 3 e0 00 4b
        E 7 e0 00 49
        E 8 e0 00 47
        E 34 e0 00 45
        E 7 e0 00 43
        E 8 e0 00 41
        E 9 e0 00 40
        E 1581 e0 00 42
        E 9 e0 00 44
        E 7 e0 00 46
        E 7 e0 00 48
        E 9 e0 00 4a
        E 5 e0 00 4c
        E 0 e0 00 4e
        E 7 e0 00 50
        E 7 e0 00 52
        E 9 e0 00 54
        E 7 e0 00 56
        E 23 e0 00 58
        E 7 e0 00 5a
        E 8 e0 00 5c
        E 9 e0 00 5e
        E 7 e0 00 60
        E 5 e0 00 62
        E 0 e0 00 64
        E 0 e0 00 66
        E 7 e0 00 68
        E 7 e0 00 6a
        E 34 e0 00 6c
        E 8 e0 00 6e
        E 7 e0 00 70
        E 9 e0 00 72
        E 7 e0 00 74
        E 8 e0 00 76
        E 2 e0 00 78
        E 0 e0 00 7a
        E 8 e0 00 7c
        E 8 e0 00 7e
        E 8 e0 7f 7f
        E 1763 e0 00 7d
        E 9 e0 00 7b
        E 7 e0 00 79
        E 8 e0 00 77
        E 8 e0 00 75
        E 8 e0 00 73
        E 8 e0 00 71
        E 7 e0 00 6f
        E 8 e0 00 6d
        E 9 e0 00 6b
        E 7 e0 00 69
        E 14 e0 00 67
        E 9 e0 00 65
        E 7 e0 00 63
        E 9 e0 00 61
        E 13 e0 00 5f
        E 8 e0 00 5d
        E 9 e0 00 5b
        E 7 e0 00 59
        E 9 e0 00 57
        E 7 e0 00 55
        E 4 e0 00 53
        E 0 e0 00 51
        E 7 e0 00 4f
        E 9 e0 00 4d
        E 7 e0 00 4b
        E 8 e0 00 49
        E 8 e0 00 47
        E 12 e0 00 45
        E 8 e0 00 43
        E 8 e0 00 41
        E 8 e0 00 40
        E 1645 e0 00 3e
        E 8 e0 00 3c
        E 14 e0 00 3a
        E 8 e0 00 38
        E 8 e0 00 36
        E 8 e0 00 34
        E 8 e0 00 32
        E 8 e0 00 30
        E 1 e0 00 2e
        E 1 e0 00 2c
        E 9 e0 00 2a
        E 8 e0 00 28
        E 7 e0 00 26
        E 9 e0 00 24
        E 14 e0 00 22
        E 7 e0 00 20
        E 9 e0 00 1e
        E 7 e0 00 1c
        E 9 e0 00 1a
        E 14 e0 00 18
        E 7 e0 00 16
        E 9 e0 00 14
        E 7 e0 00 12
        E 9 e0 00 10
        E 8 e0 00 0e
        E 2 e0 00 0c
        E 9 e0 00 0a
        E 7 e0 00 08
        E 8 e0 00 06
        E 8 e0 00 04
        E 8 e0 00 02
        E 7 e0 00 00
        E 1594 e0 00 02
        E 7 e0 00 04
        E 4 e0 00 06
        E 7 e0 00 08
        E 9 e0 00 0a
        E 7 e0 00 0c
        E 8 e0 00 0e
        E 9 e0 00 10
        E 0 e0 00 12
        E 0 e0 00 14
        E 3 e0 00 16
        E 7 e0 00 18
        E 9 e0 00 1a
        E 33 e0 00 1c
        E 8 e0 00 1e
        E 8 e0 00 20
        E 7 e0 00 22
        E 9 e0 00 24
        E 5 e0 00 26
        E 5 e0 00 28
        E 8 e0 00 2a
        E 8 e0 00 2c
        E 9 e0 00 2e
        E 7 e0 00 30
        E 8 e0 00 32
        E 7 e0 00 34
        E 7 e0 00 36
        E 8 e0 00 38
        E 9 e0 00 3a
        E 7 e0 00 3c
        E 15 e0 00 3e
        E 7 e0 00 40
        E 1643 e0 00 3e
        E 8 e0 00 3c
        E 8 e0 00 3a
        E 8 e0 00 38
        E 14 e0 00 36
        E 9 e0 00 34
        E 7 e0 00 32
        E 9 e0 00 30
        E 7 e0 00 2e
        E 8 e0 00 2c
        E 3 e0 00 2a
        E 8 e0 00 28
        E 9 e0 00 26
        E 7 e0 00 24
        E 8 e0 00 22
        E 8 e0 00 20
        E 7 e0 00 1e
        E 9 e0 00 1c
        E 7 e0 00 1a
        E 7 e0 00 18
        E 9 e0 00 16
        E 14 e0 00 14
        E 9 e0 00 12
        E 7 e0 00 10
        E 8 e0 00 0e
        E 8 e0 00 0c
        E 8 e0 00 0a
        E 3 e0 00 08
        E 8 e0 00 06
        E 7 e0 00 04
        E 9 e0 00 02
        E 8 e0 00 00
        E 1753 e0 00 02
        E 8 e0 00 04
        E 8 e0 00 06
        E 8 e0 00 08
        E 8 e0 00 0a
        E 8 e0 00 0c
        E 5 e0 00 0e
        E 8 e0 00 10
        E 8 e0 00 12
        E 9 e0 00 14
        E 7 e0 00 16
        E 14 e0 00 18
        E 9 e0 00 1a
        E 7 e0 00 1c
        E 9 e0 00 1e
        E 7 e0 00 20
        E 6 e0 00 22
        E 6 e0 00 24
        E 8 e0 00 26
        E 7 e0 00 28
        E 9 e0 00 2a
        E 7 e0 00 2c
        E 8 e0 00 2e
        E 0 e0 00 30
        E 0 e0 00 32
        E 3 e0 00 34
        E 8 e0 00 36
        E 34 e0 00 38
        E 7 e0 00 3a
        E 8 e0 00 3c
        E 9 e0 00 3e
        E 7 e0 00 40
        E 1137 90 54 00
        E 492 90 54 3d
        E 77 e0 00 42
        E 3 e0 00 44
        E 9 e0 00 46
        E 7 e0 00 48
        E 8 e0 00 4a
        E 8 e0 00 4c
        E 8 e0 00 4e
        E 3 e0 00 50
        E 0 e0 00 52
        E 0 e0 00 54
        E 9 e0 00 56
        E 7 e0 00 58
        E 7 e0 00 5a
        E 9 e0 00 5c
        E 14 e0 00 5e
        E 9 e0 00 60
        E 7 e0 00 62
        E 8 e0 00 64
        E 22 e0 00 66
        E 7 e0 00 68
        E 9 e0 00 6a
        E 7 e0 00 6c
        E 8 e0 00 6e
        E 9 e0 00 70
        E 6 e0 00 72
        E 8 e0 00 74
        E 8 e0 00 76
        E 8 e0 00 78
        E 9 e0 00 7a
        E 11 e0 00 7c
        E 8 e0 00 7e
        E 8 e0 7f 7f
        E 1730 e0 00 7d
        E 8 e0 00 7b
        E 7 e0 00 79
        E 9 e0 00 77
        E 14 e0 00 75
        E 8 e0 00 73
        E 8 e0 00 71
        E 7 e0 00 6f
        E 9 e0 00 6d
        E 14 e0 00 6b
        E 8 e0 00 69
        E 8 e0 00 67
        E 7 e0 00 65
        E 9 e0 00 63
        E 13 e0 00 61
        E 7 e0 00 5f
        E 9 e0 00 5d
        E 7 e0 00 5b
        E 15 e0 00 59
        E 8 e0 00 57
        E 8 e0 00 55
        E 8 e0 00 53
        E 7 e0 00 51
        E 9 e0 00 4f
        E 5 e0 00 4d
        E 6 e0 00 4b
        E 8 e0 00 49
        E 7 e0 00 47
        E 9 e0 00 45
        E 8 e0 00 43
        E 6 e0 00 41
        E 0 e0 00 40
        E 1610 e0 00 42
        E 8 e0 00 44
        E 8 e0 00 46
        E 7 e0 00 48
        E 9 e0 00 4a
        E 7 e0 00 4c
        E 3 e0 00 4e
        E 8 e0 00 50
        E 8 e0 00 52
        E 8 e0 00 54
        E 8 e0 00 56
        E 7 e0 00 58
        E 6 e0 00 5a
        E 7 e0 00 5c
        E 9 e0 00 5e
        E 8 e0 00 60
        E 7 e0 00 62
        E 15 e0 00 64
        E 8 e0 00 66
        E 7 e0 00 68
        E 9 e0 00 6a
        E 7 e0 00 6c
        E 9 e0 00 6e
        E 4 e0 00 70
        E 7 e0 00 72
        E 9 e0 00 74
        E 7 e0 00 76
        E 8 e0 00 78
        E 9 e0 00 7a
        E 1 e0 00 7c
        E 0 e0 00 7e
        E 0 e0 7f 7f
        E 1727 e0 00 7d
        E 7 e0 00 7b
        E 5 e0 00 79
        E 5 e0 00 77
        E 9 e0 00 75
        E 7 e0 00 73
        E 9 e0 00 71
        E 8 e0 00 6f
        E 6 e0 00 6d
        E 0 e0 00 6b
        E 0 e0 00 69
        E 4 e0 00 67
        E 8 e0 00 65
        E 7 e0 00 63
        E 9 e0 00 61
        E 8 e0 00 5f
        E 15 e0 00 5d
        E 7 e0 00 5b
        E 8 e0 00 59
        E 8 e0 00 57
        E 8 e0 00 55
        E 14 e0 00 53
        E 8 e0 00 51
        E 8 e0 00 4f
        E 7 e0 00 4d
        E 15 e0 00 4b
        E 8 e0 00 49
        E 8 e0 00 47
        E 8 e0 00 45
        E 9 e0 00 43
        E 13 e0 00 41
        E 8 e0 00 40
        E 1596 e0 00 3e
        E 0 e0 00 3c
        E 2 e0 00 3a
        E 9 e0 00 38
        E 8 e0 00 36
        E 8 e0 00 34
        E 8 e0 00 32
        E 7 e0 00 30
        E 2 e0 00 2e
        E 2 e0 00 2c
        E 8 e0 00 2a
        E 8 e0 00 28
        E 31 e0 00 26
        E 9 e0 00 24
        E 8 e0 00 22
        E 8 e0 00 20
        E 8 e0 00 1e
        E 7 e0 00 1c
        E 4 e0 00 1a
        E 8 e0 00 18
        E 8 e0 00 16
        E 8 e0 00 14
        E 9 e0 00 12
        E 7 e0 00 10
        E 6 e0 00 0e
        E 8 e0 00 0c
        E 8 e0 00 0a
        E 7 e0 00 08
        E 9 e0 00 06
        E 7 e0 00 04
        E 0 e0 00 02
        E 4 e0 00 00
        E 1879 e0 00 02
        E 7 e0 00 04
        E 9 e0 00 06
        E 7 e0 00 08
        E 14 e0 00 0a
        E 9 e0 00 0c
        E 7 e0 00 0e
        E 9 e0 00 10
        E 8 e0 00 12
        E 7 e0 00 14
        E 2 e0 00 16
        E 0 e0 00 18
        E 7 e0 00 1a
        E 9 e0 00 1c
        E 7 e0 00 1e
        E 9 e0 00 20
        E 14 e0 00 22
        E 7 e0 00 24
        E 9 e0 00 26
        E 7 e0 00 28
        E 9 e0 00 2a
        E 14 e0 00 2c
        E 7 e0 00 2e
        E 9 e0 00 30
        E 8 e0 00 32
        E 7 e0 00 34
        E 9 e0 00 36
        E 2 e0 00 38
        E 9 e0 00 3a
        E 8 e0 00 3c
        E 7 e0 00 3e
        E 9 e0 00 40
        E 1486 e0 00 3e
        E 8 e0 00 3c
        E 9 e0 00 3a
        E 7 e0 00 38
        E 8 e0 00 36
        E 8 e0 00 34
        E 1 e0 00 32
        E 3 e0 00 30
        E 7 e0 00 2e
        E 8 e0 00 2c
        E 8 e0 00 2a
        E 8 e0 00 28
        E 14 e0 00 26
        E 8 e0 00 24
        E 8 e0 00 22
        E 8 e0 00 20
        E 8 e0 00 1e
        E 9 e0 00 1c
        E 1 e0 00 1a
        E 8 e0 00 18
        E 8 e0 00 16
        E 9 e0 00 14
        E 8 e0 00 12
        E 14 e0 00 10
        E 9 e0 00 0e
        E 7 e0 00 0c
        E 7 e0 00 0a
        E 9 e0 00 08
        E 8 e0 00 06
        E 2 e0 00 04
        E 0 e0 00 02
        E 3 e0 00 00
        E 1722 e0 00 02
        E 8 e0 00 04
        E 5 e0 00 06
        E 6 e0 00 08
        E 7 e0 00 0a
        E 9 e0 00 0c
        E 7 e0 00 0e
        E 9 e0 00 10
        E 7 e0 00 12
        E 7 e0 00 14
        E 9 e0 00 16
        E 7 e0 00 18
        E 9 e0 00 1a
        E 13 e0 00 1c
        E 8 e0 00 1e
        E 9 e0 00 20
        E 7 e0 00 22
        E 9 e0 00 24
        E 7 e0 00 26
        E 4 e0 00 28
        E 8 e0 00 2a
        E 7 e0 00 2c
        E 9 e0 00 2e
        E 7 e0 00 30
        E 8 e0 00 32
        E 6 e0 00 34
        E 0 e0 00 36
        E 0 e0 00 38
        E 5 e0 00 3a
        E 8 e0 00 3c
        E 34 e0 00 3e
        E 7 e0 00 40
        E 1717 90 54 00
        E 5406 b0 7b 00
        CCINTERP 32
        CHASE_CC_TAKEOFFS 1
        GUID {B2BC6B4C-4364-4254-A94B-2DE2B9D10BE1}
        IGNTEMPO 0 120 4 4
        SRCCOLOR 15
      >
      TAKE SEL
      NAME "07-midi 1-Recorded MIDI"
      TAKEVOLPAN 0 1 -1
      SOFFS 23.91457333333332 47.82914666666665
      PLAYRATE 1 1 0 -1 0 0.0025
      CHANMODE 0
      TAKECOLOR 17333685 R
      GUID {614DF20D-DB69-4929-8E5C-A55FBBE44F0E}
      RECPASS 4
      <SOURCE MIDI
        HASDATA 1 960 QN
        CCINTERP 32
        POOLEDEVTS {3F0A8A0C-DB5D-40F8-9B88-7A9138A7DFCA}
        E 8316 90 33 4a
        E 15 90 37 5a
        E 3739 90 3c 4a
        E 8 90 3e 72
        E 3389 90 3e 00
        E 761 90 3f 7f
        E 3162 90 3c 00
        E 331 90 3f 00
        E 131 90 3f 52
        E 13 90 41 41
        E 6 90 3a 56
        E 351 90 41 00
        E 3057 90 37 00
        E 17 90 33 00
        E 435 90 33 52
        E 10 90 37 64
        E 366 90 3f 00
        E 69 90 3a 00
        E 3338 90 3c 45
        E 20 90 3e 6c
        E 3562 90 3e 00
        E 274 90 3f 46
        E 7426 90 3f 00
        E 39 90 3c 00
        E 17 90 37 00
        E 49 90 33 00
        E 4545 b0 47 3b
        E 2470 b0 7b 00
        CCINTERP 32
        CHASE_CC_TAKEOFFS 1
        GUID {D1B497C8-4478-4F72-886F-7DDDE3134FD1}
        IGNTEMPO 0 120 4 4
        SRCCOLOR 22
      >
    >
    <ITEM
      POSITION 144.11999999999983
      SNAPOFFS 0
      LENGTH 15.67244613835405
      LOOP 1
      ALLTAKES 0
      FADEIN 1 0.01 0 1 0 0
      FADEOUT 1 0.01 0 1 0 0
      MUTE 0 0
      SEL 0
      IGUID {5428C8AF-12ED-46BD-A0AE-E15B492CA836}
      IID 70
      VOLPAN 1
      TAKE SEL
      NAME "07-midi 1-Recorded MIDI"
      TAKEVOLPAN 0 1 -1
      SOFFS 4.5 9
      PLAYRATE 1 1 0 -1 0 0.0025
      CHANMODE 0
      TAKECOLOR 17333685 R
      GUID {9B45455C-FDA8-469C-B841-FC3F2105FCF7}
      RECPASS 4
      <SOURCE MIDI
        HASDATA 1 960 QN
        CCINTERP 32
        POOLEDEVTS {C694AFFE-3157-44EA-AA45-F3B066509F40}
        E 8316 90 33 4a
        E 15 90 37 5a
        E 3739 90 3c 4a
        E 8 90 3e 72
        E 3389 90 3e 00
        E 761 90 3f 7f
        E 3162 90 3c 00
        E 331 90 3f 00
        E 131 90 3f 52
        E 13 90 41 41
        E 6 90 3a 56
        E 351 90 41 00
        E 3057 90 37 00
        E 17 90 33 00
        E 435 90 33 52
        E 10 90 37 64
        E 366 90 3f 00
        E 69 90 3a 00
        E 3338 90 3c 45
        E 20 90 3e 6c
        E 3562 90 3e 00
        E 274 90 3f 46
        E 7426 90 3f 00
        E 39 90 3c 00
        E 17 90 37 00
        E 49 90 33 00
        E 4545 b0 47 3b
        E 2470 b0 7b 00
        CCINTERP 32
        CHASE_CC_TAKEOFFS 1
        GUID {C2AD1450-BD2A-43C6-921D-E30CFB1B90FF}
        IGNTEMPO 0 120 4 4
        SRCCOLOR 21
        VELLANE -1 100 0
      >
    >
    <ITEM
      POSITION 160.06651499119499
      SNAPOFFS 0
      LENGTH 15.67244613835405
      LOOP 1
      ALLTAKES 0
      FADEIN 1 0.01 0 1 0 0
      FADEOUT 1 0.01 0 1 0 0
      MUTE 0 0
      SEL 0
      IGUID {0FAE5E59-A4E2-474B-B337-B7CCA83CC1A8}
      IID 70
      VOLPAN 1
      TAKE SEL
      NAME "07-midi 1-Recorded MIDI"
      TAKEVOLPAN 0 1 -1
      SOFFS 4.5 9
      PLAYRATE 1 1 0 -1 0 0.0025
      CHANMODE 0
      TAKECOLOR 17333685 R
      GUID {51A34064-FB9C-40BE-84E3-B37E747E79E1}
      RECPASS 4
      <SOURCE MIDI
        HASDATA 1 960 QN
        CCINTERP 32
        POOLEDEVTS {D58DB259-AD7E-4372-A081-C3D7222238BD}
        E 8316 90 33 4a
        E 15 90 37 5a
        E 3739 90 3c 4a
        E 8 90 3e 72
        E 3389 90 3e 00
        E 761 90 3f 7f
        E 3162 90 3c 00
        E 331 90 3f 00
        E 131 90 3f 52
        E 13 90 41 41
        E 6 90 3a 56
        E 351 90 41 00
        E 3057 90 37 00
        E 17 90 33 00
        E 435 90 33 52
        E 10 90 37 64
        E 366 90 3f 00
        E 69 90 3a 00
        E 3338 90 3c 45
        E 20 90 3e 6c
        E 3562 90 3e 00
        E 274 90 3f 46
        E 7426 90 3f 00
        E 39 90 3c 00
        E 17 90 37 00
        E 49 90 33 00
        E 4545 b0 47 3b
        E 2470 b0 7b 00
        CCINTERP 32
        CHASE_CC_TAKEOFFS 1
        GUID {C2AD1450-BD2A-43C6-921D-E30CFB1B90FF}
        IGNTEMPO 0 120 4 4
        SRCCOLOR 21
        VELLANE -1 100 0
      >
    >
  >
  <TRACK {A567C8C9-F3D1-41A0-8361-BC0450B1176A}
    NAME "flurry extra synth"
    PEAKCOL 16576
    BEAT -1
    AUTOMODE 0
    VOLPAN 0.75333899751391 0 -1 -1 1
    MUTESOLO 0 0 0
    IPHASE 0
    PLAYOFFS 0 1
    ISBUS 0 0
    BUSCOMP 0 0 0 0 0
    SHOWINMIX 1 0.6667 0.5 1 0.5 -1 -1 -1
    FREEMODE 0
    SEL 1
    REC 0 0 1 0 0 0 0
    VU 2
    TRACKHEIGHT 0 0 0 0 -1 0
    INQ 0 0 0 0.5 100 0 0 100
    NCHAN 2
    FX 1
    TRACKID {A567C8C9-F3D1-41A0-8361-BC0450B1176A}
    PERF 0
    MIDIOUT -1
    MAINSEND 1 0
    <ITEM
      POSITION 80.00001
      SNAPOFFS 0
      LENGTH 3.99999
      LOOP 1
      ALLTAKES 0
      FADEIN 1 0.01 0 1 0 0
      FADEOUT 1 0.01 0 1 0 0
      MUTE 0 0
      SEL 0
      IGUID {43881560-8C75-4CFA-818D-212D3BACD63A}
      IID 43
      NAME "flurry extra synth.mp3"
      VOLPAN 1 0 1 -1
      SOFFS 0
      PLAYRATE 1 1 0 -1 0 0.0025
      CHANMODE 0
      GUID {1A21F3D4-8482-47DD-A422-4C07DC88C2CB}
      <SOURCE MP3
        FILE "stems\flurry extra synth.mp3" 1
      >
    >
    <ITEM
      POSITION 84
      SNAPOFFS 0
      LENGTH 2
      LOOP 1
      ALLTAKES 0
      FADEIN 1 0.01 0 1 0 0
      FADEOUT 1 0.01 0 1 0 0
      MUTE 0 0
      SEL 0
      IGUID {592A28DB-F024-4B97-BBB5-71E5894FDF22}
      IID 49
      NAME "mocha-jones-x-the-weeknd C.mp3"
      VOLPAN 1 0 1 -1
      SOFFS 0
      PLAYRATE 1 1 0 -1 0 0.0025
      CHANMODE 0
      GUID {FEE1AC1D-02AE-43AA-9291-50BBD1BAAD70}
      <SOURCE MP3
        FILE "C:\Users\User\Desktop\samples & loops\mocha-jones-x-the-weeknd C.mp3" 1
      >
    >
    <ITEM
      POSITION 86
      SNAPOFFS 0
      LENGTH 2
      LOOP 1
      ALLTAKES 0
      FADEIN 1 0.01 0 1 0 0
      FADEOUT 1 0.01 0 1 0 0
      MUTE 0 0
      SEL 0
      IGUID {821C4A14-7B14-4EB7-A23E-5FF765B32459}
      IID 51
      NAME "mocha-jones-x-the-weeknd C.mp3"
      VOLPAN 1 0 1 -1
      SOFFS 6
      PLAYRATE 1 1 0 -1 0 0.0025
      CHANMODE 0
      GUID {B35C3F2C-1085-4C91-A401-8D29C9CC9DC1}
      <SOURCE MP3
        FILE "C:\Users\User\Desktop\samples & loops\mocha-jones-x-the-weeknd C.mp3" 1
      >
    >
    <ITEM
      POSITION 88.00000999995973
      SNAPOFFS 0
      LENGTH 3.99999
      LOOP 1
      ALLTAKES 0
      FADEIN 1 0.01 0 1 0 0
      FADEOUT 1 0.01 0 1 0 0
      MUTE 0 0
      SEL 0
      IGUID {60661C33-3B61-479B-A194-A443CFB0EF00}
      IID 43
      NAME "flurry extra synth.mp3"
      VOLPAN 1 0 1 -1
      SOFFS 0
      PLAYRATE 1 1 0 -1 0 0.0025
      CHANMODE 0
      GUID {404A2E80-23E6-4C75-AF87-A3AAA45DE502}
      <SOURCE MP3
        FILE "stems\flurry extra synth.mp3" 1
      >
    >
    <ITEM
      POSITION 92
      SNAPOFFS 0
      LENGTH 2
      LOOP 1
      ALLTAKES 0
      FADEIN 1 0.01 0 1 0 0
      FADEOUT 1 0.01 0 1 0 0
      MUTE 0 0
      SEL 0
      IGUID {325EE0C4-8ECD-4C55-8D4B-8FBFF6F054BF}
      IID 49
      NAME "mocha-jones-x-the-weeknd C.mp3"
      VOLPAN 1 0 1 -1
      SOFFS 0
      PLAYRATE 1 1 0 -1 0 0.0025
      CHANMODE 0
      GUID {D5341BA5-A187-41B3-8D8E-28A81F8B23A6}
      <SOURCE MP3
        FILE "C:\Users\User\Desktop\samples & loops\mocha-jones-x-the-weeknd C.mp3" 1
      >
    >
    <ITEM
      POSITION 94
      SNAPOFFS 0
      LENGTH 2
      LOOP 1
      ALLTAKES 0
      FADEIN 1 0.01 0 1 0 0
      FADEOUT 1 0.01 0 1 0 0
      MUTE 0 0
      SEL 0
      IGUID {9900EB2D-2946-4DDE-A06F-73E84169D9FD}
      IID 49
      NAME "mocha-jones-x-the-weeknd C.mp3"
      VOLPAN 1 0 1 -1
      SOFFS 0
      PLAYRATE 1 1 0 -1 0 0.0025
      CHANMODE 0
      GUID {B65DFF39-0E97-4F45-9817-CEED38920347}
      <SOURCE MP3
        FILE "C:\Users\User\Desktop\samples & loops\mocha-jones-x-the-weeknd C.mp3" 1
      >
    >
    <ITEM
      POSITION 144
      SNAPOFFS 0
      LENGTH 3.99999
      LOOP 1
      ALLTAKES 0
      FADEIN 1 0.01 0 1 0 0
      FADEOUT 1 0.01 0 1 0 0
      MUTE 0 0
      SEL 0
      IGUID {5A1B3201-C474-4833-8C52-0FEEAE34735B}
      IID 43
      NAME "flurry extra synth.mp3"
      VOLPAN 1 0 1 -1
      SOFFS 0
      PLAYRATE 1 1 0 -1 0 0.0025
      CHANMODE 0
      GUID {6EB28B53-9593-4351-819A-A4167F26D44B}
      <SOURCE MP3
        FILE "stems\flurry extra synth.mp3" 1
      >
    >
    <ITEM
      POSITION 148
      SNAPOFFS 0
      LENGTH 2
      LOOP 1
      ALLTAKES 0
      FADEIN 1 0.01 0 1 0 0
      FADEOUT 1 0.01 0 1 0 0
      MUTE 0 0
      SEL 0
      IGUID {4638E9B4-8F31-4BAF-A7E1-A183BD95BE41}
      IID 49
      NAME "mocha-jones-x-the-weeknd C.mp3"
      VOLPAN 1 0 1 -1
      SOFFS 0
      PLAYRATE 1 1 0 -1 0 0.0025
      CHANMODE 0
      GUID {07776504-1308-4E24-B818-7511E34A53E1}
      <SOURCE MP3
        FILE "C:\Users\User\Desktop\samples & loops\mocha-jones-x-the-weeknd C.mp3" 1
      >
    >
    <ITEM
      POSITION 150
      SNAPOFFS 0
      LENGTH 2
      LOOP 1
      ALLTAKES 0
      FADEIN 1 0.01 0 1 0 0
      FADEOUT 1 0.01 0 1 0 0
      MUTE 0 0
      SEL 0
      IGUID {CA9F904D-0222-4FBA-AC85-EE35A5CE624F}
      IID 51
      NAME "mocha-jones-x-the-weeknd C.mp3"
      VOLPAN 1 0 1 -1
      SOFFS 6
      PLAYRATE 1 1 0 -1 0 0.0025
      CHANMODE 0
      GUID {B81FE0DB-1400-46A4-B844-8C7607DC59FA}
      <SOURCE MP3
        FILE "C:\Users\User\Desktop\samples & loops\mocha-jones-x-the-weeknd C.mp3" 1
      >
    >
    <ITEM
      POSITION 152
      SNAPOFFS 0
      LENGTH 3.99999
      LOOP 1
      ALLTAKES 0
      FADEIN 1 0.01 0 1 0 0
      FADEOUT 1 0.01 0 1 0 0
      MUTE 0 0
      SEL 0
      IGUID {2B6C6612-5D44-4AA5-AAD4-2422CA4DE93A}
      IID 43
      NAME "flurry extra synth.mp3"
      VOLPAN 1 0 1 -1
      SOFFS 0
      PLAYRATE 1 1 0 -1 0 0.0025
      CHANMODE 0
      GUID {CE1E42CF-A191-4F64-B933-A7D49E9D59B5}
      <SOURCE MP3
        FILE "stems\flurry extra synth.mp3" 1
      >
    >
    <ITEM
      POSITION 156
      SNAPOFFS 0
      LENGTH 2
      LOOP 1
      ALLTAKES 0
      FADEIN 1 0.01 0 1 0 0
      FADEOUT 1 0.01 0 1 0 0
      MUTE 0 0
      SEL 0
      IGUID {54A6F130-C2D2-4809-AFC9-6760C739A8A4}
      IID 49
      NAME "mocha-jones-x-the-weeknd C.mp3"
      VOLPAN 1 0 1 -1
      SOFFS 0
      PLAYRATE 1 1 0 -1 0 0.0025
      CHANMODE 0
      GUID {7F724D7D-57BD-4204-B222-5825BD58D2A6}
      <SOURCE MP3
        FILE "C:\Users\User\Desktop\samples & loops\mocha-jones-x-the-weeknd C.mp3" 1
      >
    >
    <ITEM
      POSITION 158
      SNAPOFFS 0
      LENGTH 2
      LOOP 1
      ALLTAKES 0
      FADEIN 1 0.01 0 1 0 0
      FADEOUT 1 0.01 0 1 0 0
      MUTE 0 0
      SEL 0
      IGUID {9B26D25F-189A-40D4-B312-717F2B068D0F}
      IID 51
      NAME "mocha-jones-x-the-weeknd C.mp3"
      VOLPAN 1 0 1 -1
      SOFFS 6
      PLAYRATE 1 1 0 -1 0 0.0025
      CHANMODE 0
      GUID {75071FDA-19EB-467E-B73F-6C7F47B0F10B}
      <SOURCE MP3
        FILE "C:\Users\User\Desktop\samples & loops\mocha-jones-x-the-weeknd C.mp3" 1
      >
    >
    <ITEM
      POSITION 160
      SNAPOFFS 0
      LENGTH 3.99999
      LOOP 1
      ALLTAKES 0
      FADEIN 1 0.01 0 1 0 0
      FADEOUT 1 0.01 0 1 0 0
      MUTE 0 0
      SEL 0
      IGUID {F868F3DC-88EE-4EC5-B66B-0C0DA6937950}
      IID 43
      NAME "flurry extra synth.mp3"
      VOLPAN 1 0 1 -1
      SOFFS 0
      PLAYRATE 1 1 0 -1 0 0.0025
      CHANMODE 0
      GUID {AD79DA2A-1B08-4C55-96FC-EE07A4F94D7B}
      <SOURCE MP3
        FILE "stems\flurry extra synth.mp3" 1
      >
    >
    <ITEM
      POSITION 164
      SNAPOFFS 0
      LENGTH 2
      LOOP 1
      ALLTAKES 0
      FADEIN 1 0.01 0 1 0 0
      FADEOUT 1 0.01 0 1 0 0
      MUTE 0 0
      SEL 0
      IGUID {07BE0B10-8F20-4379-9CDB-A1E0ACD967C6}
      IID 49
      NAME "mocha-jones-x-the-weeknd C.mp3"
      VOLPAN 1 0 1 -1
      SOFFS 0
      PLAYRATE 1 1 0 -1 0 0.0025
      CHANMODE 0
      GUID {80E0C0A6-765C-4E96-A77F-69AD93B01F37}
      <SOURCE MP3
        FILE "C:\Users\User\Desktop\samples & loops\mocha-jones-x-the-weeknd C.mp3" 1
      >
    >
    <ITEM
      POSITION 166
      SNAPOFFS 0
      LENGTH 2
      LOOP 1
      ALLTAKES 0
      FADEIN 1 0.01 0 1 0 0
      FADEOUT 1 0.01 0 1 0 0
      MUTE 0 0
      SEL 0
      IGUID {66D0FE91-5C36-4A3B-99AD-AB412B469718}
      IID 51
      NAME "mocha-jones-x-the-weeknd C.mp3"
      VOLPAN 1 0 1 -1
      SOFFS 6
      PLAYRATE 1 1 0 -1 0 0.0025
      CHANMODE 0
      GUID {42DB08D0-43F4-4B58-B8AB-4A642D8DD8BA}
      <SOURCE MP3
        FILE "C:\Users\User\Desktop\samples & loops\mocha-jones-x-the-weeknd C.mp3" 1
      >
    >
    <ITEM
      POSITION 168
      SNAPOFFS 0
      LENGTH 3.99999
      LOOP 1
      ALLTAKES 0
      FADEIN 1 0.01 0 1 0 0
      FADEOUT 1 0.01 0 1 0 0
      MUTE 0 0
      SEL 0
      IGUID {A32FCB70-DEC4-43A2-9E34-7D5E7D814B2A}
      IID 43
      NAME "flurry extra synth.mp3"
      VOLPAN 1 0 1 -1
      SOFFS 0
      PLAYRATE 1 1 0 -1 0 0.0025
      CHANMODE 0
      GUID {59681FC0-EFB7-40AF-9843-49D79B151AFE}
      <SOURCE MP3
        FILE "stems\flurry extra synth.mp3" 1
      >
    >
    <ITEM
      POSITION 172
      SNAPOFFS 0
      LENGTH 2
      LOOP 1
      ALLTAKES 0
      FADEIN 1 0.01 0 1 0 0
      FADEOUT 1 0.01 0 1 0 0
      MUTE 0 0
      SEL 0
      IGUID {05140393-D098-4AC9-814D-E5E86ACBF653}
      IID 49
      NAME "mocha-jones-x-the-weeknd C.mp3"
      VOLPAN 1 0 1 -1
      SOFFS 0
      PLAYRATE 1 1 0 -1 0 0.0025
      CHANMODE 0
      GUID {6B3C0763-00DE-4FC2-A97F-B22A9E8107DC}
      <SOURCE MP3
        FILE "C:\Users\User\Desktop\samples & loops\mocha-jones-x-the-weeknd C.mp3" 1
      >
    >
    <ITEM
      POSITION 174
      SNAPOFFS 0
      LENGTH 2
      LOOP 1
      ALLTAKES 0
      FADEIN 1 0.01 0 1 0 0
      FADEOUT 1 0.01 0 1 0 0
      MUTE 0 0
      SEL 1
      IGUID {A6B8BCAC-02B8-4E9E-8F29-E16E5C06811C}
      IID 49
      NAME "mocha-jones-x-the-weeknd C.mp3"
      VOLPAN 1 0 1 -1
      SOFFS 0
      PLAYRATE 1 1 0 -1 0 0.0025
      CHANMODE 0
      GUID {17C526C9-0AC2-4A9A-86E1-F6452C677C49}
      <SOURCE MP3
        FILE "C:\Users\User\Desktop\samples & loops\mocha-jones-x-the-weeknd C.mp3" 1
      >
    >
  >
>
